<svg width="1920" height="933" viewBox="0 0 1920 933" fill="none" xmlns="http://www.w3.org/2000/svg">
<g clip-path="url(#clip0_2374_6391)">
<mask id="mask0_2374_6391" style="mask-type:luminance" maskUnits="userSpaceOnUse" x="0" y="0" width="1920" height="1064">
<path d="M1920 0H0V1064H1920V0Z" fill="white"/>
</mask>
<g mask="url(#mask0_2374_6391)">
<path d="M46.3124 831.112C46.3124 821.251 95.3433 843.274 95.3433 830.509C95.3433 836.996 143.714 821.853 143.714 816.309C143.714 809.373 180.418 811.926 180.418 794.669C180.418 814.655 224.159 821.809 224.159 803.654C224.159 781.817 257.413 775.09 257.413 786.156C257.413 769.491 292.737 813.493 292.737 797.814C292.737 799.896 331.04 777.533 331.04 778.157C331.04 779.713 363.804 799.271 363.804 803.665C363.804 795.721 400.847 799.195 400.847 803.314C400.847 821.415 439.05 805.834 439.05 815.838C439.05 811.39 479.992 814.742 479.992 814.753C479.992 819.508 518.895 814.271 518.895 823.793C518.895 803.292 558.358 851.984 558.358 830.049C558.358 835.834 592.721 868.18 592.721 861.561C592.721 850.933 634.304 865.593 634.304 857.32C634.304 849.705 674.166 852.993 674.166 861.583C674.166 851.656 709.4 895.89 709.4 888.81C709.4 891.94 749.282 884.7 749.282 887.41C749.282 899.24 787.375 906.69 787.375 894.4C787.375 888.7 826.008 874.99 826.008 893.71C826.008 892.03 864.291 891.7 864.291 901.5C864.291 910.56 906.003 891.51 906.003 899.19C906.003 893.65 944.686 885.08 944.686 881.3C944.686 878.35 981.699 857.879 981.699 860.991C981.699 860.158 1028.49 854.548 1028.49 866.634C1028.49 875.48 1064.19 841.751 1064.19 842.375C1064.19 843.296 1095.3 812.869 1095.3 806.568C1095.3 808.727 1134.23 786.101 1134.23 789.618C1134.23 786.682 1177.42 794.889 1177.42 787.186C1177.42 782.431 1219.23 785.871 1219.23 786.759C1219.23 787.131 1259.23 761.569 1259.23 756.846C1259.23 754.173 1299.93 741.671 1299.93 746.065C1299.93 745.528 1344.13 756.112 1344.13 750.207C1344.13 745.101 1371.44 713.129 1371.44 710.455C1371.44 702.588 1411.64 697.921 1411.64 697.406C1411.64 705.799 1454.03 689.846 1454.03 692.87C1454.03 699.203 1495.14 701.778 1495.14 704.1C1495.14 707.344 1537.49 687.797 1537.49 687.731C1537.49 680.85 1574.07 712.581 1574.07 712.428C1574.07 713.249 1619.49 727.931 1619.49 715.145C1619.49 711.935 1652.03 744.717 1652.03 748.202C1652.03 761.667 1689.34 785.718 1689.34 770.389C1689.34 789.991 1722.4 757.778 1722.4 759.805C1722.4 759.903 1758.1 768.691 1758.1 761.58C1758.1 764.768 1794.24 759.684 1794.24 765.283C1794.24 779.187 1835.18 744.049 1835.18 736.598C1835.18 731.668 1877.48 774.684 1877.48 750.349C1877.48 728.49 1917.76 756.156 1917.76 765.974C1917.76 760.451 1960.69 774.465 1960.69 770.137C1960.69 761.919 1997.91 783.34 1997.91 789.312C1997.91 782.365 2038 804.454 2038 797.43C2038 785.948 2073.41 843.822 2073.41 828.625C2073.41 830.673 2113.29 831.912 2113.29 839.406C2113.29 816.331 2154.88 833.939 2154.88 840.217C2154.88 840.677 2198.09 826.291 2198.09 830.432C2198.09 841.159 2237.12 857.496 2237.12 845.356C2237.12 847.437 2266.38 847.185 2266.38 839.296C2266.38 836.886 2291.54 807.522 2291.54 819.235C2291.54 821.568 2305.97 784.249 2305.97 780.984C2305.97 780.086 2321.76 731.591 2321.76 737.563C2321.76 739.338 2312.33 689.495 2312.33 694.174C2312.33 702.446 2324.23 651.727 2324.23 652.976C2324.23 654.236 2323.64 614.068 2323.64 609.97C2323.64 607.582 2351.19 577.012 2351.19 572.421C2351.19 573.298 2345.48 528.364 2345.48 528.364L2354.14 487.188L2351.53 444.052L2378.37 405.418L2368.29 361.645L2358.76 319.418L2383 276.489L2375.08 233.889L2361.21 193.25L2352.79 151.209L2320.68 117.287L2314.36 69.263L2279.21 38.978L2274.05 -9.87799L2240.31 -43.384L2225.73 -80.692L2216.81 -122.087L2175.13 -126.568L2135.78 -148.734L2095.66 -131.466L2056.54 -153.642L2016.87 -154.103L1977.18 -154.179L1937.27 -144.57L1897.98 -160.282L1858.26 -158.759L1818.72 -165.015L1778.98 -162.233L1738.8 -140.954L1699.28 -147.649L1659.9 -161.027L1620.25 -162.046L1580.38 -153.336L1540.79 -157.302L1501.03 -153.478L1461.53 -162.134L1422.11 -174.647L1382.1 -157.839L1342.77 -176.027L1302.79 -159.603L1263.04 -155.209L1223.74 -176.904L1183.67 -153.259L1144.23 -166.966L1104.76 -179.566L1064.91 -168.785L1025.17 -163.186L985.489 -162.123L945.866 -164.862L906.443 -186.425L866.751 -185.757L826.948 -172.039L787.175 -159.636L747.593 -169.508L708.02 -183.5L668.357 -185.582L628.585 -162.857L588.972 -175.742L549.299 -175.874L509.637 -175.666L469.974 -166.878L430.281 -189L390.669 -164.358L351.006 -166.166L311.253 -183.39L271.591 -181.407L232.018 -169.201L192.305 -173.825L152.613 -176.652L113.11 -162.561L73.2774 -174.921L35.9343 -170.22L-1.60873 -170.998L-39.1618 -168.872L-73.5154 -145.951L-111.778 -147.846L-148.392 -138.281L-182.865 -121.232L-208.141 -89.7204L-241.534 -68.6175L-269.079 -38.2014L-279.307 3.01801L-288.166 43.109L-282.227 85.6L-291.445 124.737L-290.525 165.332L-291.445 205.894L-297.704 248.33L-305.712 290.722L-309.852 333.3L-312.451 375.977L-313.911 418.719L-319 461.528L-296.104 503.821L-300.473 546.498L-300.024 589.076L-291.585 630.964L-309.852 676.018L-304.453 718.695C-304.453 718.695 -290.145 769.567 -290.145 768.066C-290.145 770.148 -264.81 813.559 -264.81 809.242C-264.81 808.847 -230.026 839.22 -230.026 830.115C-230.026 829.107 -194.243 815.115 -194.243 810.557C-194.243 802.328 -154.4 798.373 -154.4 798.428C-154.4 812.211 -113.878 819.037 -113.878 811.006C-113.878 812.77 -73.9753 817.317 -73.9753 815.969C-73.9753 831.221 -33.3528 792.796 -33.3528 810.173C-33.3528 799.14 5.85989 829.797 5.85989 827.814C5.85989 822.083 46.3124 823.146 46.3124 831.112Z" fill="#CBC5C5"/>
</g>
</g>
<defs>
<clipPath id="clip0_2374_6391">
<rect width="1920" height="933" fill="white"/>
</clipPath>
</defs>
</svg>
