<svg width="795" height="794" viewBox="0 0 795 794" fill="none" xmlns="http://www.w3.org/2000/svg">
<path d="M444.3 364.12C444.3 372.28 437.68 378.9 429.51 378.9C421.35 378.9 414.73 372.28 414.73 364.12C414.73 355.95 421.35 349.33 429.51 349.33C437.68 349.33 444.3 355.95 444.3 364.12ZM429.54 415.24C421.36 415.24 414.73 421.86 414.73 430.04C414.73 438.22 421.36 444.84 429.54 444.84C437.71 444.84 444.34 438.22 444.34 430.04C444.34 421.86 437.71 415.24 429.54 415.24ZM363.66 349.19C355.49 349.19 348.87 355.82 348.87 363.99C348.87 372.16 355.49 378.79 363.66 378.79C371.83 378.79 378.46 372.16 378.46 363.99C378.46 355.82 371.83 349.19 363.66 349.19ZM363.69 415.13C355.47 415.13 348.8 421.8 348.8 430.02C348.8 438.25 355.47 444.91 363.69 444.91C371.92 444.91 378.58 438.25 378.58 430.02C378.58 421.8 371.92 415.13 363.69 415.13ZM396.66 349.43C388.43 349.43 381.76 356.1 381.76 364.33C381.76 372.56 388.43 379.23 396.66 379.23C404.89 379.23 411.56 372.56 411.56 364.33C411.56 356.1 404.89 349.43 396.66 349.43ZM429.55 317.27C421.62 317.27 415.2 323.7 415.2 331.63C415.2 339.55 421.62 345.98 429.55 345.98C437.48 345.98 443.9 339.55 443.9 331.63C443.9 323.7 437.48 317.27 429.55 317.27ZM462.59 349.57C454.62 349.57 448.16 356.03 448.16 364C448.16 371.97 454.62 378.43 462.59 378.43C470.57 378.43 477.03 371.97 477.03 364C477.03 356.03 470.57 349.57 462.59 349.57ZM363.53 317.18C355.58 317.18 349.13 323.63 349.13 331.58C349.13 339.54 355.58 345.99 363.53 345.99C371.49 345.99 377.94 339.54 377.94 331.58C377.94 323.63 371.49 317.18 363.53 317.18ZM462.59 415.61C454.63 415.61 448.17 422.06 448.17 430.02C448.17 437.99 454.63 444.44 462.59 444.44C470.55 444.44 477.01 437.99 477.01 430.02C477.01 422.06 470.55 415.61 462.59 415.61ZM331.24 349.53C323.26 349.53 316.78 356.01 316.78 363.99C316.78 371.97 323.26 378.45 331.24 378.45C339.22 378.45 345.7 371.97 345.7 363.99C345.7 356.01 339.22 349.53 331.24 349.53ZM429.7 448.65C421.76 448.65 415.33 455.08 415.33 463.01C415.33 470.95 421.76 477.38 429.7 477.38C437.63 477.38 444.06 470.95 444.06 463.01C444.06 455.08 437.63 448.65 429.7 448.65ZM363.8 448.62C356 448.62 349.67 454.94 349.67 462.74C349.67 470.54 356 476.86 363.8 476.86C371.6 476.86 377.92 470.54 377.92 462.74C377.92 454.94 371.6 448.62 363.8 448.62ZM330.8 415.42C322.95 415.42 316.6 421.77 316.6 429.61C316.6 437.45 322.95 443.81 330.8 443.81C338.64 443.81 344.99 437.45 344.99 429.61C344.99 421.77 338.64 415.42 330.8 415.42ZM462.53 317.64C454.84 317.64 448.6 323.87 448.6 331.56C448.6 339.25 454.84 345.49 462.53 345.49C470.22 345.49 476.45 339.25 476.45 331.56C476.45 323.87 470.22 317.64 462.53 317.64ZM331.2 317.62C323.48 317.62 317.22 323.88 317.22 331.6C317.22 339.32 323.48 345.58 331.2 345.58C338.92 345.58 345.18 339.32 345.18 331.6C345.18 323.88 338.92 317.62 331.2 317.62ZM462.53 449.07C454.82 449.07 448.57 455.33 448.57 463.04C448.57 470.74 454.82 477 462.53 477C470.24 477 476.49 470.74 476.49 463.04C476.49 455.33 470.24 449.07 462.53 449.07ZM331.19 448.47C323.48 448.47 317.23 454.72 317.23 462.43C317.23 470.14 323.48 476.39 331.19 476.39C338.9 476.39 345.15 470.14 345.15 462.43C345.15 454.72 338.9 448.47 331.19 448.47ZM495.33 350.54C487.77 350.54 481.63 356.67 481.63 364.24C481.63 371.8 487.77 377.94 495.33 377.94C502.9 377.94 509.03 371.8 509.03 364.24C509.03 356.67 502.9 350.54 495.33 350.54ZM429.36 284.74C421.85 284.74 415.76 290.83 415.76 298.35C415.76 305.86 421.85 311.95 429.36 311.95C436.88 311.95 442.97 305.86 442.97 298.35C442.97 290.83 436.88 284.74 429.36 284.74ZM363.87 284.68C356.33 284.68 350.23 290.79 350.23 298.32C350.23 305.86 356.33 311.96 363.87 311.96C371.4 311.96 377.51 305.86 377.51 298.32C377.51 290.79 371.4 284.68 363.87 284.68ZM495.25 416.02C487.7 416.02 481.59 422.13 481.59 429.67C481.59 437.21 487.7 443.33 495.25 443.33C502.79 443.33 508.9 437.21 508.9 429.67C508.9 422.13 502.79 416.02 495.25 416.02ZM429.23 482.03C421.66 482.03 415.52 488.17 415.52 495.73C415.52 503.3 421.66 509.44 429.23 509.44C436.8 509.44 442.93 503.3 442.93 495.73C442.93 488.17 436.8 482.03 429.23 482.03ZM298.29 350.59C290.71 350.59 284.57 356.73 284.57 364.31C284.57 371.89 290.71 378.03 298.29 378.03C305.86 378.03 312 371.89 312 364.31C312 356.73 305.86 350.59 298.29 350.59ZM298.49 416.01C290.9 416.01 284.75 422.17 284.75 429.76C284.75 437.35 290.9 443.51 298.49 443.51C306.08 443.51 312.24 437.35 312.24 429.76C312.24 422.17 306.08 416.01 298.49 416.01ZM363.82 481.97C356.24 481.97 350.1 488.11 350.1 495.68C350.1 503.26 356.24 509.4 363.82 509.4C371.39 509.4 377.54 503.26 377.54 495.68C377.54 488.11 371.39 481.97 363.82 481.97ZM462.57 285.16C455.13 285.16 449.1 291.19 449.1 298.63C449.1 306.08 455.13 312.11 462.57 312.11C470.02 312.11 476.05 306.08 476.05 298.63C476.05 291.19 470.02 285.16 462.57 285.16ZM396.41 284.69C388.75 284.69 382.54 290.9 382.54 298.56C382.54 306.22 388.75 312.43 396.41 312.43C404.07 312.43 410.28 306.22 410.28 298.56C410.28 290.9 404.07 284.69 396.41 284.69ZM494.99 318.13C487.55 318.13 481.51 324.16 481.51 331.6C481.51 339.05 487.55 345.08 494.99 345.08C502.43 345.08 508.46 339.05 508.46 331.6C508.46 324.16 502.43 318.13 494.99 318.13ZM494.97 449.56C487.53 449.56 481.51 455.59 481.51 463.02C481.51 470.46 487.53 476.49 494.97 476.49C502.41 476.49 508.43 470.46 508.43 463.02C508.43 455.59 502.41 449.56 494.97 449.56ZM298.08 318C290.72 318 284.74 323.97 284.74 331.34C284.74 338.71 290.72 344.68 298.08 344.68C305.45 344.68 311.43 338.71 311.43 331.34C311.43 323.97 305.45 318 298.08 318ZM462.48 481.95C455.06 481.95 449.04 487.97 449.04 495.39C449.04 502.81 455.06 508.83 462.48 508.83C469.9 508.83 475.92 502.81 475.92 495.39C475.92 487.97 469.9 481.95 462.48 481.95ZM331.24 285.11C323.87 285.11 317.9 291.08 317.9 298.44C317.9 305.81 323.87 311.78 331.24 311.78C338.6 311.78 344.57 305.81 344.57 298.44C344.57 291.08 338.6 285.11 331.24 285.11ZM330.91 482.53C323.63 482.53 317.72 488.44 317.72 495.72C317.72 503.01 323.63 508.91 330.91 508.91C338.2 508.91 344.1 503.01 344.1 495.72C344.1 488.44 338.2 482.53 330.91 482.53ZM297.93 449.57C290.65 449.57 284.75 455.47 284.75 462.75C284.75 470.04 290.65 475.94 297.93 475.94C305.21 475.94 311.12 470.04 311.12 462.75C311.12 455.47 305.21 449.57 297.93 449.57ZM298.2 383.71C290.75 383.71 284.7 389.76 284.7 397.22C284.7 404.67 290.75 410.72 298.2 410.72C305.66 410.72 311.71 404.67 311.71 397.22C311.71 389.76 305.66 383.71 298.2 383.71ZM429.62 252.65C422.46 252.65 416.65 258.45 416.65 265.62C416.65 272.78 422.46 278.59 429.62 278.59C436.79 278.59 442.59 272.78 442.59 265.62C442.59 258.45 436.79 252.65 429.62 252.65ZM527.98 351.1C520.83 351.1 515.02 356.9 515.02 364.06C515.02 371.22 520.83 377.02 527.98 377.02C535.14 377.02 540.94 371.22 540.94 364.06C540.94 356.9 535.14 351.1 527.98 351.1ZM528.01 417.01C520.86 417.01 515.06 422.8 515.06 429.95C515.06 437.1 520.86 442.89 528.01 442.89C535.15 442.89 540.95 437.1 540.95 429.95C540.95 422.8 535.15 417.01 528.01 417.01ZM364.08 252.56C356.9 252.56 351.09 258.37 351.09 265.54C351.09 272.71 356.9 278.53 364.08 278.53C371.25 278.53 377.06 272.71 377.06 265.54C377.06 258.37 371.25 252.56 364.08 252.56ZM495.01 285.43C487.81 285.43 481.97 291.27 481.97 298.48C481.97 305.68 487.81 311.52 495.01 311.52C502.21 311.52 508.05 305.68 508.05 298.48C508.05 291.27 502.21 285.43 495.01 285.43ZM396.96 252.85C389.8 252.85 384 258.66 384 265.82C384 272.98 389.8 278.78 396.96 278.78C404.12 278.78 409.92 272.98 409.92 265.82C409.92 258.66 404.12 252.85 396.96 252.85ZM429.74 515.46C422.57 515.46 416.75 521.28 416.75 528.45C416.75 535.62 422.57 541.44 429.74 541.44C436.91 541.44 442.73 535.62 442.73 528.45C442.73 521.28 436.91 515.46 429.74 515.46ZM265.01 350.89C257.83 350.89 252.01 356.71 252.01 363.89C252.01 371.07 257.83 376.89 265.01 376.89C272.19 376.89 278.01 371.07 278.01 363.89C278.01 356.71 272.19 350.89 265.01 350.89ZM494.99 482.28C487.78 482.28 481.95 488.12 481.95 495.32C481.95 502.52 487.78 508.36 494.99 508.36C502.19 508.36 508.02 502.52 508.02 495.32C508.02 488.12 502.19 482.28 494.99 482.28ZM298.09 285.56C290.88 285.56 285.04 291.4 285.04 298.61C285.04 305.81 290.88 311.65 298.09 311.65C305.29 311.65 311.14 305.81 311.14 298.61C311.14 291.4 305.29 285.56 298.09 285.56ZM265.08 416.94C257.89 416.94 252.06 422.77 252.06 429.96C252.06 437.15 257.89 442.98 265.08 442.98C272.27 442.98 278.1 437.15 278.1 429.96C278.1 422.77 272.27 416.94 265.08 416.94ZM363.54 515.38C356.36 515.38 350.53 521.21 350.53 528.4C350.53 535.59 356.36 541.41 363.54 541.41C370.73 541.41 376.56 535.59 376.56 528.4C376.56 521.21 370.73 515.38 363.54 515.38ZM462.3 253.2C455.26 253.2 449.56 258.9 449.56 265.93C449.56 272.97 455.26 278.67 462.3 278.67C469.33 278.67 475.04 272.97 475.04 265.93C475.04 258.9 469.33 253.2 462.3 253.2ZM528.28 318.58C521.23 318.58 515.52 324.29 515.52 331.34C515.52 338.39 521.23 344.1 528.28 344.1C535.33 344.1 541.04 338.39 541.04 331.34C541.04 324.29 535.33 318.58 528.28 318.58ZM297.84 482.96C290.78 482.96 285.05 488.69 285.05 495.75C285.05 502.81 290.78 508.54 297.84 508.54C304.9 508.54 310.62 502.81 310.62 495.75C310.62 488.69 304.9 482.96 297.84 482.96ZM330.74 253.1C323.7 253.1 317.98 258.81 317.98 265.86C317.98 272.9 323.7 278.61 330.74 278.61C337.79 278.61 343.5 272.9 343.5 265.86C343.5 258.81 337.79 253.1 330.74 253.1ZM527.69 449.8C520.61 449.8 514.87 455.54 514.87 462.63C514.87 469.71 520.61 475.45 527.69 475.45C534.78 475.45 540.52 469.71 540.52 462.63C540.52 455.54 534.78 449.8 527.69 449.8ZM265.49 318.45C258.41 318.45 252.67 324.19 252.67 331.27C252.67 338.35 258.41 344.09 265.49 344.09C272.57 344.09 278.31 338.35 278.31 331.27C278.31 324.19 272.57 318.45 265.49 318.45ZM462.14 515.35C455.09 515.35 449.37 521.07 449.37 528.12C449.37 535.17 455.09 540.89 462.14 540.89C469.19 540.89 474.9 535.17 474.9 528.12C474.9 521.07 469.19 515.35 462.14 515.35ZM331.13 515.93C324.21 515.93 318.61 521.53 318.61 528.44C318.61 535.35 324.21 540.95 331.13 540.95C338.04 540.95 343.64 535.35 343.64 528.44C343.64 521.53 338.04 515.93 331.13 515.93ZM265.2 450C258.31 450 252.73 455.59 252.73 462.48C252.73 469.37 258.31 474.96 265.2 474.96C272.09 474.96 277.68 469.37 277.68 462.48C277.68 455.59 272.09 450 265.2 450ZM495.35 253.6C488.54 253.6 483.01 259.12 483.01 265.94C483.01 272.75 488.54 278.28 495.35 278.28C502.17 278.28 507.69 272.75 507.69 265.94C507.69 259.12 502.17 253.6 495.35 253.6ZM528.33 286.56C521.51 286.56 515.99 292.09 515.99 298.9C515.99 305.72 521.51 311.24 528.33 311.24C535.14 311.24 540.67 305.72 540.67 298.9C540.67 292.09 535.14 286.56 528.33 286.56ZM396.68 515.5C389.61 515.5 383.88 521.24 383.88 528.31C383.88 535.38 389.61 541.12 396.68 541.12C403.76 541.12 409.49 535.38 409.49 528.31C409.49 521.24 403.76 515.5 396.68 515.5ZM560.69 352.01C553.86 352.01 548.33 357.54 548.33 364.36C548.33 371.18 553.86 376.71 560.69 376.71C567.51 376.71 573.04 371.18 573.04 364.36C573.04 357.54 567.51 352.01 560.69 352.01ZM429.23 220.45C422.42 220.45 416.89 225.98 416.89 232.79C416.89 239.61 422.42 245.13 429.23 245.13C436.05 245.13 441.57 239.61 441.57 232.79C441.57 225.98 436.05 220.45 429.23 220.45ZM527.73 483.4C520.93 483.4 515.42 488.92 515.42 495.72C515.42 502.52 520.93 508.03 527.73 508.03C534.54 508.03 540.05 502.52 540.05 495.72C540.05 488.92 534.54 483.4 527.73 483.4ZM298.44 253.59C291.63 253.59 286.11 259.11 286.11 265.92C286.11 272.73 291.63 278.25 298.44 278.25C305.25 278.25 310.77 272.73 310.77 265.92C310.77 259.11 305.25 253.59 298.44 253.59ZM363.91 220.51C357.07 220.51 351.52 226.05 351.52 232.9C351.52 239.74 357.07 245.29 363.91 245.29C370.76 245.29 376.3 239.74 376.3 232.9C376.3 226.05 370.76 220.51 363.91 220.51ZM265.36 286.09C258.53 286.09 252.99 291.63 252.99 298.47C252.99 305.3 258.53 310.84 265.36 310.84C272.2 310.84 277.74 305.3 277.74 298.47C277.74 291.63 272.2 286.09 265.36 286.09ZM495.3 515.72C488.45 515.72 482.9 521.27 482.9 528.12C482.9 534.97 488.45 540.53 495.3 540.53C502.15 540.53 507.71 534.97 507.71 528.12C507.71 521.27 502.15 515.72 495.3 515.72ZM560.72 417.33C553.88 417.33 548.33 422.87 548.33 429.71C548.33 436.55 553.88 442.09 560.72 442.09C567.55 442.09 573.1 436.55 573.1 429.71C573.1 422.87 567.55 417.33 560.72 417.33ZM298.07 516.49C291.45 516.49 286.08 521.86 286.08 528.48C286.08 535.1 291.45 540.47 298.07 540.47C304.7 540.47 310.06 535.1 310.06 528.48C310.06 521.86 304.7 516.49 298.07 516.49ZM429.54 549.44C422.9 549.44 417.53 554.81 417.53 561.45C417.53 568.08 422.9 573.46 429.54 573.46C436.17 573.46 441.55 568.08 441.55 561.45C441.55 554.81 436.17 549.44 429.54 549.44ZM232.62 352.05C225.98 352.05 220.6 357.43 220.6 364.07C220.6 370.71 225.98 376.09 232.62 376.09C239.26 376.09 244.65 370.71 244.65 364.07C244.65 357.43 239.26 352.05 232.62 352.05ZM265.07 483.48C258.44 483.48 253.07 488.86 253.07 495.49C253.07 502.12 258.44 507.5 265.07 507.5C271.7 507.5 277.08 502.12 277.08 495.49C277.08 488.86 271.7 483.48 265.07 483.48ZM232.65 418.02C226 418.02 220.61 423.41 220.61 430.07C220.61 436.72 226 442.11 232.65 442.11C239.3 442.11 244.7 436.72 244.7 430.07C244.7 423.41 239.3 418.02 232.65 418.02ZM363.54 549.38C356.86 549.38 351.45 554.79 351.45 561.47C351.45 568.15 356.86 573.57 363.54 573.57C370.22 573.57 375.64 568.15 375.64 561.47C375.64 554.79 370.22 549.38 363.54 549.38ZM462.6 221.08C455.92 221.08 450.51 226.49 450.51 233.17C450.51 239.85 455.92 245.26 462.6 245.26C469.28 245.26 474.69 239.85 474.69 233.17C474.69 226.49 469.28 221.08 462.6 221.08ZM561.06 319.52C554.39 319.52 548.97 324.93 548.97 331.61C548.97 338.29 554.39 343.7 561.06 343.7C567.74 343.7 573.16 338.29 573.16 331.61C573.16 324.93 567.74 319.52 561.06 319.52ZM331.06 220.51C324.35 220.51 318.91 225.95 318.91 232.67C318.91 239.38 324.35 244.82 331.06 244.82C337.78 244.82 343.22 239.38 343.22 232.67C343.22 225.95 337.78 220.51 331.06 220.51ZM561.1 450.85C554.43 450.85 549.02 456.26 549.02 462.93C549.02 469.6 554.43 475.01 561.1 475.01C567.77 475.01 573.18 469.6 573.18 462.93C573.18 456.26 567.77 450.85 561.1 450.85ZM462.27 549.25C455.76 549.25 450.48 554.53 450.48 561.04C450.48 567.55 455.76 572.83 462.27 572.83C468.78 572.83 474.05 567.55 474.05 561.04C474.05 554.53 468.78 549.25 462.27 549.25ZM232.38 319.55C225.87 319.55 220.6 324.82 220.6 331.33C220.6 337.83 225.87 343.11 232.38 343.11C238.89 343.11 244.16 337.83 244.16 331.33C244.16 324.82 238.89 319.55 232.38 319.55ZM396.65 220.96C389.97 220.96 384.56 226.38 384.56 233.06C384.56 239.73 389.97 245.15 396.65 245.15C403.33 245.15 408.74 239.73 408.74 233.06C408.74 226.38 403.33 220.96 396.65 220.96ZM560.76 385.06C553.98 385.06 548.48 390.56 548.48 397.34C548.48 404.13 553.98 409.63 560.76 409.63C567.55 409.63 573.05 404.13 573.05 397.34C573.05 390.56 567.55 385.06 560.76 385.06ZM232.35 450.95C225.81 450.95 220.5 456.25 220.5 462.8C220.5 469.35 225.81 474.65 232.35 474.65C238.9 474.65 244.21 469.35 244.21 462.8C244.21 456.25 238.9 450.95 232.35 450.95ZM528.28 254.04C521.74 254.04 516.43 259.35 516.43 265.89C516.43 272.44 521.74 277.75 528.28 277.75C534.83 277.75 540.14 272.44 540.14 265.89C540.14 259.35 534.83 254.04 528.28 254.04ZM330.85 549.3C324.32 549.3 319.02 554.6 319.02 561.14C319.02 567.67 324.32 572.97 330.85 572.97C337.39 572.97 342.69 567.67 342.69 561.14C342.69 554.6 337.39 549.3 330.85 549.3ZM265.35 254.04C258.79 254.04 253.48 259.35 253.48 265.91C253.48 272.46 258.79 277.78 265.35 277.78C271.9 277.78 277.22 272.46 277.22 265.91C277.22 259.35 271.9 254.04 265.35 254.04ZM527.76 516.24C521.19 516.24 515.88 521.56 515.88 528.12C515.88 534.68 521.19 540 527.76 540C534.32 540 539.64 534.68 539.64 528.12C539.64 521.56 534.32 516.24 527.76 516.24ZM495.05 221.57C488.65 221.57 483.47 226.76 483.47 233.16C483.47 239.55 488.65 244.74 495.05 244.74C501.45 244.74 506.63 239.55 506.63 233.16C506.63 226.76 501.45 221.57 495.05 221.57ZM560.98 287.04C554.58 287.04 549.4 292.22 549.4 298.61C549.4 305.01 554.58 310.19 560.98 310.19C567.37 310.19 572.55 305.01 572.55 298.61C572.55 292.22 567.37 287.04 560.98 287.04ZM265.1 516.86C258.67 516.86 253.46 522.07 253.46 528.5C253.46 534.93 258.67 540.14 265.1 540.14C271.52 540.14 276.73 534.93 276.73 528.5C276.73 522.07 271.52 516.86 265.1 516.86ZM560.94 484.1C554.56 484.1 549.4 489.26 549.4 495.64C549.4 502.01 554.56 507.18 560.94 507.18C567.31 507.18 572.48 502.01 572.48 495.64C572.48 489.26 567.31 484.1 560.94 484.1ZM298 221.02C291.62 221.02 286.44 226.19 286.44 232.58C286.44 238.97 291.62 244.14 298 244.14C304.39 244.14 309.56 238.97 309.56 232.58C309.56 226.19 304.39 221.02 298 221.02ZM232.67 287.06C226.27 287.06 221.08 292.25 221.08 298.65C221.08 305.06 226.27 310.25 232.67 310.25C239.08 310.25 244.27 305.06 244.27 298.65C244.27 292.25 239.08 287.06 232.67 287.06ZM494.95 549.81C488.52 549.81 483.31 555.02 483.31 561.45C483.31 567.88 488.52 573.09 494.95 573.09C501.38 573.09 506.59 567.88 506.59 561.45C506.59 555.02 501.38 549.81 494.95 549.81ZM593.78 352.94C587.48 352.94 582.38 358.05 582.38 364.35C582.38 370.65 587.48 375.75 593.78 375.75C600.08 375.75 605.19 370.65 605.19 364.35C605.19 358.05 600.08 352.94 593.78 352.94ZM429.35 188.67C423.11 188.67 418.05 193.74 418.05 199.98C418.05 206.22 423.11 211.28 429.35 211.28C435.59 211.28 440.65 206.22 440.65 199.98C440.65 193.74 435.59 188.67 429.35 188.67ZM232.38 484.35C226.12 484.35 221.05 489.42 221.05 495.68C221.05 501.93 226.12 507 232.38 507C238.63 507 243.7 501.93 243.7 495.68C243.7 489.42 238.63 484.35 232.38 484.35ZM297.76 549.8C291.5 549.8 286.42 554.88 286.42 561.15C286.42 567.41 291.5 572.49 297.76 572.49C304.03 572.49 309.11 567.41 309.11 561.15C309.11 554.88 304.03 549.8 297.76 549.8ZM593.85 418.57C587.63 418.57 582.59 423.61 582.59 429.83C582.59 436.05 587.63 441.09 593.85 441.09C600.07 441.09 605.11 436.05 605.11 429.83C605.11 423.61 600.07 418.57 593.85 418.57ZM363.83 188.5C357.57 188.5 352.49 193.58 352.49 199.85C352.49 206.11 357.57 211.19 363.83 211.19C370.1 211.19 375.17 206.11 375.17 199.85C375.17 193.58 370.1 188.5 363.83 188.5ZM429.22 582.79C422.94 582.79 417.84 587.89 417.84 594.17C417.84 600.46 422.94 605.56 429.22 605.56C435.51 605.56 440.61 600.46 440.61 594.17C440.61 587.89 435.51 582.79 429.22 582.79ZM593.83 319.81C587.55 319.81 582.45 324.91 582.45 331.2C582.45 337.48 587.55 342.58 593.83 342.58C600.12 342.58 605.21 337.48 605.21 331.2C605.21 324.91 600.12 319.81 593.83 319.81ZM199.3 352.98C193.02 352.98 187.93 358.07 187.93 364.35C187.93 370.63 193.02 375.72 199.3 375.72C205.58 375.72 210.68 370.63 210.68 364.35C210.68 358.07 205.58 352.98 199.3 352.98ZM199.35 418.31C193.08 418.31 187.99 423.39 187.99 429.66C187.99 435.93 193.08 441.01 199.35 441.01C205.61 441.01 210.7 435.93 210.7 429.66C210.7 423.39 205.61 418.31 199.35 418.31ZM363.76 582.86C357.54 582.86 352.5 587.91 352.5 594.13C352.5 600.35 357.54 605.39 363.76 605.39C369.98 605.39 375.03 600.35 375.03 594.13C375.03 587.91 369.98 582.86 363.76 582.86ZM528.02 221.93C521.88 221.93 516.91 226.9 516.91 233.04C516.91 239.17 521.88 244.15 528.02 244.15C534.15 244.15 539.13 239.17 539.13 233.04C539.13 226.9 534.15 221.93 528.02 221.93ZM462.57 189.04C456.42 189.04 451.43 194.03 451.43 200.18C451.43 206.33 456.42 211.32 462.57 211.32C468.72 211.32 473.71 206.33 473.71 200.18C473.71 194.03 468.72 189.04 462.57 189.04ZM396.37 188.74C390.03 188.74 384.9 193.88 384.9 200.22C384.9 206.56 390.03 211.7 396.37 211.7C402.71 211.7 407.85 206.56 407.85 200.22C407.85 193.88 402.71 188.74 396.37 188.74ZM561 254.48C554.85 254.48 549.86 259.47 549.86 265.62C549.86 271.77 554.85 276.76 561 276.76C567.15 276.76 572.14 271.77 572.14 265.62C572.14 259.47 567.15 254.48 561 254.48ZM331.12 189.08C324.97 189.08 319.99 194.07 319.99 200.22C319.99 206.36 324.97 211.35 331.12 211.35C337.27 211.35 342.25 206.36 342.25 200.22C342.25 194.07 337.27 189.08 331.12 189.08ZM593.4 451.77C587.23 451.77 582.22 456.77 582.22 462.95C582.22 469.13 587.23 474.13 593.4 474.13C599.58 474.13 604.58 469.13 604.58 462.95C604.58 456.77 599.58 451.77 593.4 451.77ZM593.38 385.75C587.07 385.75 581.96 390.86 581.96 397.16C581.96 403.47 587.07 408.58 593.38 408.58C599.68 408.58 604.79 403.47 604.79 397.16C604.79 390.86 599.68 385.75 593.38 385.75ZM199.77 320.43C193.59 320.43 188.58 325.43 188.58 331.61C188.58 337.79 193.59 342.8 199.77 342.8C205.95 342.8 210.96 337.79 210.96 331.61C210.96 325.43 205.95 320.43 199.77 320.43ZM528.11 550.3C521.94 550.3 516.94 555.3 516.94 561.47C516.94 567.64 521.94 572.65 528.11 572.65C534.28 572.65 539.28 567.64 539.28 561.47C539.28 555.3 534.28 550.3 528.11 550.3ZM331.13 582.59C324.94 582.59 319.92 587.61 319.92 593.8C319.92 599.99 324.94 605.01 331.13 605.01C337.32 605.01 342.34 599.99 342.34 593.8C342.34 587.61 337.32 582.59 331.13 582.59ZM199.75 451.26C193.58 451.26 188.58 456.26 188.58 462.43C188.58 468.6 193.58 473.6 199.75 473.6C205.92 473.6 210.92 468.6 210.92 462.43C210.92 456.26 205.92 451.26 199.75 451.26ZM199.25 385.78C193.06 385.78 188.04 390.8 188.04 396.98C188.04 403.17 193.06 408.19 199.25 408.19C205.44 408.19 210.45 403.17 210.45 396.98C210.45 390.8 205.44 385.78 199.25 385.78ZM265.49 550.25C259.47 550.25 254.59 555.12 254.59 561.14C254.59 567.16 259.47 572.04 265.49 572.04C271.51 572.04 276.39 567.16 276.39 561.14C276.39 555.12 271.51 550.25 265.49 550.25ZM232.37 517.31C226.34 517.31 221.45 522.2 221.45 528.22C221.45 534.25 226.34 539.14 232.37 539.14C238.39 539.14 243.28 534.25 243.28 528.22C243.28 522.2 238.39 517.31 232.37 517.31ZM593.72 287.86C587.66 287.86 582.74 292.77 582.74 298.84C582.74 304.91 587.66 309.82 593.72 309.82C599.79 309.82 604.71 304.91 604.71 298.84C604.71 292.77 599.79 287.86 593.72 287.86ZM593.69 484.79C587.65 484.79 582.75 489.69 582.75 495.73C582.75 501.77 587.65 506.66 593.69 506.66C599.73 506.66 604.63 501.77 604.63 495.73C604.63 489.69 599.73 484.79 593.69 484.79ZM298.36 188.83C292.28 188.83 287.35 193.76 287.35 199.84C287.35 205.92 292.28 210.85 298.36 210.85C304.44 210.85 309.37 205.92 309.37 199.84C309.37 193.76 304.44 188.83 298.36 188.83ZM199.69 288C193.8 288 189.03 292.77 189.03 298.65C189.03 304.54 193.8 309.31 199.69 309.31C205.57 309.31 210.34 304.54 210.34 298.65C210.34 292.77 205.57 288 199.69 288ZM495.03 583.21C489.14 583.21 484.36 587.99 484.36 593.88C484.36 599.77 489.14 604.55 495.03 604.55C500.92 604.55 505.7 599.77 505.7 593.88C505.7 587.99 500.92 583.21 495.03 583.21ZM298.18 583.14C292.27 583.14 287.49 587.93 287.49 593.83C287.49 599.74 292.27 604.52 298.18 604.52C304.08 604.52 308.87 599.74 308.87 593.83C308.87 587.93 304.08 583.14 298.18 583.14ZM199.72 484.7C193.81 484.7 189.02 489.49 189.02 495.39C189.02 501.3 193.81 506.09 199.72 506.09C205.62 506.09 210.41 501.3 210.41 495.39C210.41 489.49 205.62 484.7 199.72 484.7ZM561.1 222.33C555.17 222.33 550.36 227.15 550.36 233.08C550.36 239.02 555.17 243.83 561.1 243.83C567.04 243.83 571.85 239.02 571.85 233.08C571.85 227.15 567.04 222.33 561.1 222.33ZM626.62 353.51C620.82 353.51 616.13 358.21 616.13 364C616.13 369.8 620.82 374.5 626.62 374.5C632.42 374.5 637.12 369.8 637.12 364C637.12 358.21 632.42 353.51 626.62 353.51ZM593.81 255.45C588.01 255.45 583.31 260.15 583.31 265.96C583.31 271.76 588.01 276.46 593.81 276.46C599.62 276.46 604.32 271.76 604.32 265.96C604.32 260.15 599.62 255.45 593.81 255.45ZM626.76 419.43C620.99 419.43 616.31 424.11 616.31 429.88C616.31 435.66 620.99 440.34 626.76 440.34C632.54 440.34 637.22 435.66 637.22 429.88C637.22 424.11 632.54 419.43 626.76 419.43ZM363.83 156.92C358.13 156.92 353.51 161.54 353.51 167.24C353.51 172.93 358.13 177.55 363.83 177.55C369.53 177.55 374.14 172.93 374.14 167.24C374.14 161.54 369.53 156.92 363.83 156.92ZM232.32 222.45C226.52 222.45 221.82 227.15 221.82 232.95C221.82 238.75 226.52 243.45 232.32 243.45C238.12 243.45 242.83 238.75 242.83 232.95C242.83 227.15 238.12 222.45 232.32 222.45ZM528.3 189.44C522.52 189.44 517.83 194.13 517.83 199.9C517.83 205.68 522.52 210.37 528.3 210.37C534.07 210.37 538.76 205.68 538.76 199.9C538.76 194.13 534.07 189.44 528.3 189.44ZM560.69 550.67C554.93 550.67 550.25 555.35 550.25 561.11C550.25 566.88 554.93 571.56 560.69 571.56C566.46 571.56 571.14 566.88 571.14 561.11C571.14 555.35 566.46 550.67 560.69 550.67ZM462.28 156.96C456.55 156.96 451.91 161.61 451.91 167.33C451.91 173.06 456.55 177.7 462.28 177.7C468 177.7 472.64 173.06 472.64 167.33C472.64 161.61 468 156.96 462.28 156.96ZM429.27 616.62C423.51 616.62 418.84 621.29 418.84 627.05C418.84 632.81 423.51 637.48 429.27 637.48C435.03 637.48 439.7 632.81 439.7 627.05C439.7 621.29 435.03 616.62 429.27 616.62ZM363.99 616.62C358.2 616.62 353.51 621.31 353.51 627.1C353.51 632.89 358.2 637.59 363.99 637.59C369.78 637.59 374.47 632.89 374.47 627.1C374.47 621.31 369.78 616.62 363.99 616.62ZM167.03 353.91C161.29 353.91 156.64 358.56 156.64 364.3C156.64 370.03 161.29 374.68 167.03 374.68C172.76 374.68 177.41 370.03 177.41 364.3C177.41 358.56 172.76 353.91 167.03 353.91ZM593.9 518.23C588.13 518.23 583.45 522.91 583.45 528.68C583.45 534.45 588.13 539.13 593.9 539.13C599.68 539.13 604.35 534.45 604.35 528.68C604.35 522.91 599.68 518.23 593.9 518.23ZM166.82 419.77C161.29 419.77 156.81 424.25 156.81 429.78C156.81 435.31 161.29 439.8 166.82 439.8C172.36 439.8 176.84 435.31 176.84 429.78C176.84 424.25 172.36 419.77 166.82 419.77ZM626.81 320.78C621.07 320.78 616.41 325.44 616.41 331.19C616.41 336.93 621.07 341.59 626.81 341.59C632.56 341.59 637.22 336.93 637.22 331.19C637.22 325.44 632.56 320.78 626.81 320.78ZM265.06 189.92C259.44 189.92 254.89 194.47 254.89 200.09C254.89 205.7 259.44 210.25 265.06 210.25C270.67 210.25 275.22 205.7 275.22 200.09C275.22 194.47 270.67 189.92 265.06 189.92ZM199.62 255.45C194.01 255.45 189.45 260 189.45 265.62C189.45 271.24 194.01 275.79 199.62 275.79C205.24 275.79 209.8 271.24 209.8 265.62C209.8 260 205.24 255.45 199.62 255.45ZM528.01 583.58C522.38 583.58 517.81 588.15 517.81 593.79C517.81 599.42 522.38 603.99 528.01 603.99C533.65 603.99 538.22 599.42 538.22 593.79C538.22 588.15 533.65 583.58 528.01 583.58ZM626.54 452.88C620.95 452.88 616.42 457.41 616.42 462.99C616.42 468.58 620.95 473.11 626.54 473.11C632.12 473.11 636.65 468.58 636.65 462.99C636.65 457.41 632.12 452.88 626.54 452.88ZM331.08 156.88C325.45 156.88 320.88 161.45 320.88 167.08C320.88 172.72 325.45 177.28 331.08 177.28C336.72 177.28 341.29 172.72 341.29 167.08C341.29 161.45 336.72 156.88 331.08 156.88ZM199.59 518.39C194.01 518.39 189.48 522.91 189.48 528.5C189.48 534.08 194.01 538.61 199.59 538.61C205.18 538.61 209.7 534.08 209.7 528.5C209.7 522.91 205.18 518.39 199.59 518.39ZM396.64 616.92C390.97 616.92 386.38 621.51 386.38 627.17C386.38 632.84 390.97 637.43 396.64 637.43C402.3 637.43 406.89 632.84 406.89 627.17C406.89 621.51 402.3 616.92 396.64 616.92ZM265.07 583.65C259.4 583.65 254.8 588.25 254.8 593.93C254.8 599.6 259.4 604.2 265.07 604.2C270.75 604.2 275.35 599.6 275.35 593.93C275.35 588.25 270.75 583.65 265.07 583.65ZM461.99 616.69C456.35 616.69 451.78 621.26 451.78 626.9C451.78 632.53 456.35 637.1 461.99 637.1C467.62 637.1 472.19 632.53 472.19 626.9C472.19 621.26 467.62 616.69 461.99 616.69ZM166.61 321.39C160.97 321.39 156.4 325.96 156.4 331.59C156.4 337.23 160.97 341.8 166.61 341.8C172.24 341.8 176.81 337.23 176.81 331.59C176.81 325.96 172.24 321.39 166.61 321.39ZM331.12 616.51C325.45 616.51 320.85 621.11 320.85 626.78C320.85 632.45 325.45 637.05 331.12 637.05C336.79 637.05 341.39 632.45 341.39 626.78C341.39 621.11 336.79 616.51 331.12 616.51ZM166.78 452.71C161.37 452.71 156.98 457.1 156.98 462.52C156.98 467.94 161.37 472.33 166.78 472.33C172.2 472.33 176.59 467.94 176.59 462.52C176.59 457.1 172.2 452.71 166.78 452.71ZM166.94 386.64C161.19 386.64 156.53 391.3 156.53 397.05C156.53 402.8 161.19 407.46 166.94 407.46C172.69 407.46 177.35 402.8 177.35 397.05C177.35 391.3 172.69 386.64 166.94 386.64ZM495.32 157.44C489.86 157.44 485.43 161.86 485.43 167.32C485.43 172.79 489.86 177.21 495.32 177.21C500.78 177.21 505.21 172.79 505.21 167.32C505.21 161.86 500.78 157.44 495.32 157.44ZM626.76 485.69C621.21 485.69 616.71 490.19 616.71 495.74C616.71 501.29 621.21 505.79 626.76 505.79C632.31 505.79 636.81 501.29 636.81 495.74C636.81 490.19 632.31 485.69 626.76 485.69ZM298.25 157.44C292.83 157.44 288.43 161.84 288.43 167.27C288.43 172.69 292.83 177.09 298.25 177.09C303.68 177.09 308.08 172.69 308.08 167.27C308.08 161.84 303.68 157.44 298.25 157.44ZM495.32 617.14C489.8 617.14 485.32 621.62 485.32 627.14C485.32 632.66 489.8 637.14 495.32 637.14C500.84 637.14 505.32 632.66 505.32 627.14C505.32 621.62 500.84 617.14 495.32 617.14ZM561.04 190.44C555.65 190.44 551.29 194.81 551.29 200.2C551.29 205.58 555.65 209.95 561.04 209.95C566.43 209.95 570.79 205.58 570.79 200.2C570.79 194.81 566.43 190.44 561.04 190.44ZM594.02 223.41C588.63 223.41 584.26 227.78 584.26 233.16C584.26 238.55 588.63 242.92 594.02 242.92C599.4 242.92 603.77 238.55 603.77 233.16C603.77 227.78 599.4 223.41 594.02 223.41ZM166.83 486.05C161.6 486.05 157.36 490.29 157.36 495.52C157.36 500.75 161.6 504.99 166.83 504.99C172.06 504.99 176.3 500.75 176.3 495.52C176.3 490.29 172.06 486.05 166.83 486.05ZM298.11 617.16C292.76 617.16 288.42 621.5 288.42 626.84C288.42 632.19 292.76 636.53 298.11 636.53C303.46 636.53 307.79 632.19 307.79 626.84C307.79 621.5 303.46 617.16 298.11 617.16ZM232.68 190.44C227.29 190.44 222.93 194.81 222.93 200.19C222.93 205.58 227.29 209.95 232.68 209.95C238.07 209.95 242.43 205.58 242.43 200.19C242.43 194.81 238.07 190.44 232.68 190.44ZM593.42 551.66C588.02 551.66 583.64 556.04 583.64 561.44C583.64 566.84 588.02 571.22 593.42 571.22C598.82 571.22 603.2 566.84 603.2 561.44C603.2 556.04 598.82 551.66 593.42 551.66ZM199.69 222.94C194.31 222.94 189.95 227.3 189.95 232.68C189.95 238.06 194.31 242.42 199.69 242.42C205.06 242.42 209.43 238.06 209.43 232.68C209.43 227.3 205.06 222.94 199.69 222.94ZM560.96 583.97C555.5 583.97 551.08 588.4 551.08 593.85C551.08 599.31 555.5 603.73 560.96 603.73C566.41 603.73 570.84 599.31 570.84 593.85C570.84 588.4 566.41 583.97 560.96 583.97ZM199.39 551.53C194.14 551.53 189.87 555.8 189.87 561.05C189.87 566.31 194.14 570.57 199.39 570.57C204.65 570.57 208.92 566.31 208.92 561.05C208.92 555.8 204.65 551.53 199.39 551.53ZM232.3 584.55C227.06 584.55 222.81 588.8 222.81 594.04C222.81 599.28 227.06 603.53 232.3 603.53C237.55 603.53 241.8 599.28 241.8 594.04C241.8 588.8 237.55 584.55 232.3 584.55ZM528.3 157.94C523.12 157.94 518.92 162.14 518.92 167.32C518.92 172.5 523.12 176.7 528.3 176.7C533.48 176.7 537.68 172.5 537.68 167.32C537.68 162.14 533.48 157.94 528.3 157.94ZM626.67 256.33C621.46 256.33 617.23 260.56 617.23 265.78C617.23 270.99 621.46 275.22 626.67 275.22C631.89 275.22 636.11 270.99 636.11 265.78C636.11 260.56 631.89 256.33 626.67 256.33ZM429.89 124.93C424.62 124.93 420.35 129.21 420.35 134.48C420.35 139.75 424.62 144.02 429.89 144.02C435.16 144.02 439.43 139.75 439.43 134.48C439.43 129.21 435.16 124.93 429.89 124.93ZM363.8 124.98C358.52 124.98 354.24 129.26 354.24 134.54C354.24 139.82 358.52 144.11 363.8 144.11C369.08 144.11 373.37 139.82 373.37 134.54C373.37 129.26 369.08 124.98 363.8 124.98ZM659.2 354.83C654.02 354.83 649.81 359.03 649.81 364.22C649.81 369.4 654.02 373.61 659.2 373.61C664.39 373.61 668.59 369.4 668.59 364.22C668.59 359.03 664.39 354.83 659.2 354.83ZM659.16 420.32C653.97 420.32 649.76 424.53 649.76 429.72C649.76 434.91 653.97 439.12 659.16 439.12C664.35 439.12 668.56 434.91 668.56 429.72C668.56 424.53 664.35 420.32 659.16 420.32ZM396.66 125.13C391.51 125.13 387.33 129.31 387.33 134.47C387.33 139.62 391.51 143.8 396.66 143.8C401.82 143.8 406 139.62 406 134.47C406 129.31 401.82 125.13 396.66 125.13ZM626.92 519.17C621.68 519.17 617.44 523.42 617.44 528.66C617.44 533.9 621.68 538.14 626.92 538.14C632.16 538.14 636.4 533.9 636.4 528.66C636.4 523.42 632.16 519.17 626.92 519.17ZM265.47 157.91C260.3 157.91 256.11 162.1 256.11 167.27C256.11 172.45 260.3 176.64 265.47 176.64C270.64 176.64 274.83 172.45 274.83 167.27C274.83 162.1 270.64 157.91 265.47 157.91ZM659.23 387.78C654.05 387.78 649.85 391.98 649.85 397.16C649.85 402.34 654.05 406.54 659.23 406.54C664.41 406.54 668.6 402.34 668.6 397.16C668.6 391.98 664.41 387.78 659.23 387.78ZM363.76 650.11C358.55 650.11 354.32 654.34 354.32 659.55C354.32 664.77 358.55 669 363.76 669C368.98 669 373.21 664.77 373.21 659.55C373.21 654.34 368.98 650.11 363.76 650.11ZM659.4 321.86C654.16 321.86 649.9 326.11 649.9 331.36C649.9 336.6 654.16 340.85 659.4 340.85C664.64 340.85 668.89 336.6 668.89 331.36C668.89 326.11 664.64 321.86 659.4 321.86ZM462.27 124.88C457.13 124.88 452.97 129.04 452.97 134.18C452.97 139.32 457.13 143.48 462.27 143.48C467.41 143.48 471.57 139.32 471.57 134.18C471.57 129.04 467.41 124.88 462.27 124.88ZM429.46 650.11C424.19 650.11 419.93 654.38 419.93 659.64C419.93 664.91 424.19 669.18 429.46 669.18C434.72 669.18 438.99 664.91 438.99 659.64C438.99 654.38 434.72 650.11 429.46 650.11ZM527.77 617.51C522.63 617.51 518.46 621.68 518.46 626.83C518.46 631.97 522.63 636.14 527.77 636.14C532.92 636.14 537.09 631.97 537.09 626.83C537.09 621.68 532.92 617.51 527.77 617.51ZM166.91 256.43C161.82 256.43 157.7 260.55 157.7 265.64C157.7 270.73 161.82 274.85 166.91 274.85C171.99 274.85 176.12 270.73 176.12 265.64C176.12 260.55 171.99 256.43 166.91 256.43ZM133.93 354.87C128.84 354.87 124.72 358.99 124.72 364.08C124.72 369.17 128.84 373.29 133.93 373.29C139.02 373.29 143.14 369.17 143.14 364.08C143.14 358.99 139.02 354.87 133.93 354.87ZM166.82 519.24C161.86 519.24 157.84 523.26 157.84 528.22C157.84 533.18 161.86 537.21 166.82 537.21C171.78 537.21 175.81 533.18 175.81 528.22C175.81 523.26 171.78 519.24 166.82 519.24ZM265.09 617.64C259.95 617.64 255.78 621.81 255.78 626.95C255.78 632.09 259.95 636.25 265.09 636.25C270.23 636.25 274.4 632.09 274.4 626.95C274.4 621.81 270.23 617.64 265.09 617.64ZM659.48 453.79C654.36 453.79 650.22 457.94 650.22 463.05C650.22 468.16 654.36 472.31 659.48 472.31C664.59 472.31 668.74 468.16 668.74 463.05C668.74 457.94 664.59 453.79 659.48 453.79ZM133.85 420.8C128.88 420.8 124.86 424.82 124.86 429.78C124.86 434.75 128.88 438.77 133.85 438.77C138.81 438.77 142.83 434.75 142.83 429.78C142.83 424.82 138.81 420.8 133.85 420.8ZM331.07 125.05C325.98 125.05 321.85 129.18 321.85 134.27C321.85 139.36 325.98 143.49 331.07 143.49C336.16 143.49 340.28 139.36 340.28 134.27C340.28 129.18 336.16 125.05 331.07 125.05ZM133.59 387.6C128.46 387.6 124.29 391.76 124.29 396.9C124.29 402.04 128.46 406.2 133.59 406.2C138.73 406.2 142.9 402.04 142.9 396.9C142.9 391.76 138.73 387.6 133.59 387.6ZM133.79 453.69C128.91 453.69 124.96 457.64 124.96 462.51C124.96 467.39 128.91 471.34 133.79 471.34C138.66 471.34 142.61 467.39 142.61 462.51C142.61 457.64 138.66 453.69 133.79 453.69ZM134.14 322.32C129.05 322.32 124.93 326.44 124.93 331.53C124.93 336.61 129.05 340.73 134.14 340.73C139.22 340.73 143.34 336.61 143.34 331.53C143.34 326.44 139.22 322.32 134.14 322.32ZM462.1 650.43C456.97 650.43 452.81 654.58 452.81 659.72C452.81 664.85 456.97 669.01 462.1 669.01C467.23 669.01 471.39 664.85 471.39 659.72C471.39 654.58 467.23 650.43 462.1 650.43ZM331.02 650.54C325.94 650.54 321.81 654.66 321.81 659.74C321.81 664.83 325.94 668.95 331.02 668.95C336.1 668.95 340.22 664.83 340.22 659.74C340.22 654.66 336.1 650.54 331.02 650.54ZM593.68 190.97C588.72 190.97 584.69 195 584.69 199.97C584.69 204.93 588.72 208.96 593.68 208.96C598.65 208.96 602.68 204.93 602.68 199.97C602.68 195 598.65 190.97 593.68 190.97ZM659.14 289.8C654.12 289.8 650.04 293.87 650.04 298.9C650.04 303.92 654.12 307.99 659.14 307.99C664.17 307.99 668.24 303.92 668.24 298.9C668.24 293.87 664.17 289.8 659.14 289.8ZM199.92 190.84C194.94 190.84 190.9 194.88 190.9 199.86C190.9 204.84 194.94 208.87 199.92 208.87C204.9 208.87 208.94 204.84 208.94 199.86C208.94 194.88 204.9 190.84 199.92 190.84ZM626.88 223.68C621.87 223.68 617.8 227.74 617.8 232.76C617.8 237.77 621.87 241.84 626.88 241.84C631.9 241.84 635.96 237.77 635.96 232.76C635.96 227.74 631.9 223.68 626.88 223.68ZM659.14 486.64C654.12 486.64 650.06 490.71 650.06 495.72C650.06 500.74 654.12 504.8 659.14 504.8C664.16 504.8 668.22 500.74 668.22 495.72C668.22 490.71 664.16 486.64 659.14 486.64ZM495.32 125.41C490.3 125.41 486.24 129.48 486.24 134.49C486.24 139.5 490.3 143.57 495.32 143.57C500.33 143.57 504.4 139.5 504.4 134.49C504.4 129.48 500.33 125.41 495.32 125.41ZM593.89 585.14C588.9 585.14 584.85 589.19 584.85 594.18C584.85 599.17 588.9 603.22 593.89 603.22C598.88 603.22 602.92 599.17 602.92 594.18C602.92 589.19 598.88 585.14 593.89 585.14ZM298.34 125.41C293.34 125.41 289.28 129.46 289.28 134.46C289.28 139.46 293.34 143.52 298.34 143.52C303.34 143.52 307.4 139.46 307.4 134.46C307.4 129.46 303.34 125.41 298.34 125.41ZM560.67 158.36C555.75 158.36 551.76 162.35 551.76 167.27C551.76 172.19 555.75 176.17 560.67 176.17C565.59 176.17 569.58 172.19 569.58 167.27C569.58 162.35 565.59 158.36 560.67 158.36ZM134.16 289.86C129.32 289.86 125.39 293.78 125.39 298.63C125.39 303.48 129.32 307.41 134.16 307.41C139.01 307.41 142.94 303.48 142.94 298.63C142.94 293.78 139.01 289.86 134.16 289.86ZM494.99 651.06C490.11 651.06 486.15 655.02 486.15 659.9C486.15 664.78 490.11 668.74 494.99 668.74C499.88 668.74 503.84 664.78 503.84 659.9C503.84 655.02 499.88 651.06 494.99 651.06ZM166.62 223.89C161.8 223.89 157.89 227.8 157.89 232.62C157.89 237.45 161.8 241.36 166.62 241.36C171.44 241.36 175.35 237.45 175.35 232.62C175.35 227.8 171.44 223.89 166.62 223.89ZM626.52 552.73C621.68 552.73 617.76 556.65 617.76 561.48C617.76 566.32 621.68 570.24 626.52 570.24C631.36 570.24 635.28 566.32 635.28 561.48C635.28 556.65 631.36 552.73 626.52 552.73ZM560.99 618.02C556.15 618.02 552.22 621.95 552.22 626.79C552.22 631.64 556.15 635.56 560.99 635.56C565.84 635.56 569.76 631.64 569.76 626.79C569.76 621.95 565.84 618.02 560.99 618.02ZM199.74 585.09C194.89 585.09 190.96 589.02 190.96 593.86C190.96 598.71 194.89 602.64 199.74 602.64C204.58 602.64 208.51 598.71 208.51 593.86C208.51 589.02 204.58 585.09 199.74 585.09ZM232.66 158.28C227.81 158.28 223.87 162.22 223.87 167.07C223.87 171.93 227.81 175.87 232.66 175.87C237.52 175.87 241.46 171.93 241.46 167.07C241.46 162.22 237.52 158.28 232.66 158.28ZM298.14 651.06C293.27 651.06 289.33 655 289.33 659.87C289.33 664.73 293.27 668.67 298.14 668.67C303 668.67 306.95 664.73 306.95 659.87C306.95 655 303 651.06 298.14 651.06ZM133.81 487.08C129.16 487.08 125.4 490.84 125.4 495.49C125.4 500.13 129.16 503.9 133.81 503.9C138.45 503.9 142.22 500.13 142.22 495.49C142.22 490.84 138.45 487.08 133.81 487.08ZM232.26 618.05C227.43 618.05 223.51 621.97 223.51 626.8C223.51 631.63 227.43 635.55 232.26 635.55C237.1 635.55 241.01 631.63 241.01 626.8C241.01 621.97 237.1 618.05 232.26 618.05ZM166.76 552.87C162.15 552.87 158.4 556.61 158.4 561.23C158.4 565.84 162.15 569.58 166.76 569.58C171.37 569.58 175.12 565.84 175.12 561.23C175.12 556.61 171.37 552.87 166.76 552.87ZM659.21 257.35C654.48 257.35 650.65 261.19 650.65 265.92C650.65 270.65 654.48 274.48 659.21 274.48C663.94 274.48 667.78 270.65 667.78 265.92C667.78 261.19 663.94 257.35 659.21 257.35ZM528.19 126.02C523.5 126.02 519.7 129.82 519.7 134.51C519.7 139.2 523.5 143.01 528.19 143.01C532.88 143.01 536.68 139.2 536.68 134.51C536.68 129.82 532.88 126.02 528.19 126.02ZM265.35 125.85C260.6 125.85 256.76 129.7 256.76 134.45C256.76 139.19 260.6 143.04 265.35 143.04C270.09 143.04 273.94 139.19 273.94 134.45C273.94 129.7 270.09 125.85 265.35 125.85ZM659.18 520.09C654.42 520.09 650.56 523.95 650.56 528.7C650.56 533.46 654.42 537.32 659.18 537.32C663.93 537.32 667.79 533.46 667.79 528.7C667.79 523.95 663.93 520.09 659.18 520.09ZM528.07 651.47C523.44 651.47 519.68 655.23 519.68 659.87C519.68 664.5 523.44 668.26 528.07 668.26C532.71 668.26 536.47 664.5 536.47 659.87C536.47 655.23 532.71 651.47 528.07 651.47ZM692.49 421.63C687.86 421.63 684.11 425.38 684.11 430C684.11 434.62 687.86 438.37 692.49 438.37C697.11 438.37 700.86 434.62 700.86 430C700.86 425.38 697.11 421.63 692.49 421.63ZM692.42 356.17C687.83 356.17 684.12 359.89 684.12 364.47C684.12 369.06 687.83 372.77 692.42 372.77C697 372.77 700.72 369.06 700.72 364.47C700.72 359.89 697 356.17 692.42 356.17ZM429.52 93.38C424.95 93.38 421.24 97.08 421.24 101.65C421.24 106.22 424.95 109.92 429.52 109.92C434.09 109.92 437.79 106.22 437.79 101.65C437.79 97.08 434.09 93.38 429.52 93.38ZM364.12 93.35C359.5 93.35 355.75 97.1 355.75 101.72C355.75 106.35 359.5 110.1 364.12 110.1C368.75 110.1 372.5 106.35 372.5 101.72C372.5 97.1 368.75 93.35 364.12 93.35ZM134.21 257.47C129.67 257.47 125.99 261.15 125.99 265.7C125.99 270.24 129.67 273.92 134.21 273.92C138.75 273.92 142.44 270.24 142.44 265.7C142.44 261.15 138.75 257.47 134.21 257.47ZM265.06 651.52C260.43 651.52 256.67 655.27 256.67 659.9C256.67 664.53 260.43 668.29 265.06 668.29C269.68 668.29 273.44 664.53 273.44 659.9C273.44 655.27 269.68 651.52 265.06 651.52ZM692.09 388.72C687.34 388.72 683.49 392.57 683.49 397.32C683.49 402.06 687.34 405.91 692.09 405.91C696.84 405.91 700.68 402.06 700.68 397.32C700.68 392.57 696.84 388.72 692.09 388.72ZM396.54 93.38C391.97 93.38 388.27 97.08 388.27 101.65C388.27 106.22 391.97 109.93 396.54 109.93C401.11 109.93 404.82 106.22 404.82 101.65C404.82 97.08 401.11 93.38 396.54 93.38ZM133.8 520.31C129.42 520.31 125.86 523.86 125.86 528.24C125.86 532.63 129.42 536.18 133.8 536.18C138.18 536.18 141.73 532.63 141.73 528.24C141.73 523.86 138.18 520.31 133.8 520.31ZM692.62 323.27C688.03 323.27 684.32 326.98 684.32 331.57C684.32 336.15 688.03 339.87 692.62 339.87C697.2 339.87 700.92 336.15 700.92 331.57C700.92 326.98 697.2 323.27 692.62 323.27ZM462.7 93.46C458.12 93.46 454.41 97.17 454.41 101.75C454.41 106.32 458.12 110.03 462.7 110.03C467.27 110.03 470.98 106.32 470.98 101.75C470.98 97.17 467.27 93.46 462.7 93.46ZM626.33 191.91C621.75 191.91 618.03 195.62 618.03 200.21C618.03 204.79 621.75 208.51 626.33 208.51C630.92 208.51 634.63 204.79 634.63 200.21C634.63 195.62 630.92 191.91 626.33 191.91ZM330.94 93.49C326.51 93.49 322.92 97.08 322.92 101.5C322.92 105.93 326.51 109.52 330.94 109.52C335.36 109.52 338.95 105.93 338.95 101.5C338.95 97.08 335.36 93.49 330.94 93.49ZM692.27 454.72C687.84 454.72 684.25 458.31 684.25 462.75C684.25 467.18 687.84 470.77 692.27 470.77C696.7 470.77 700.3 467.18 700.3 462.75C700.3 458.31 696.7 454.72 692.27 454.72ZM101.11 421.97C96.78 421.97 93.27 425.48 93.27 429.81C93.27 434.14 96.78 437.66 101.11 437.66C105.44 437.66 108.95 434.14 108.95 429.81C108.95 425.48 105.44 421.97 101.11 421.97ZM363.75 684.6C359.33 684.6 355.75 688.18 355.75 692.6C355.75 697.02 359.33 700.6 363.75 700.6C368.17 700.6 371.75 697.02 371.75 692.6C371.75 688.18 368.17 684.6 363.75 684.6ZM100.92 356.21C96.46 356.21 92.85 359.82 92.85 364.28C92.85 368.74 96.46 372.36 100.92 372.36C105.39 372.36 109 368.74 109 364.28C109 359.82 105.39 356.21 100.92 356.21ZM626.81 586.04C622.32 586.04 618.68 589.68 618.68 594.17C618.68 598.65 622.32 602.29 626.81 602.29C631.3 602.29 634.94 598.65 634.94 594.17C634.94 589.68 631.3 586.04 626.81 586.04ZM593.88 619.02C589.37 619.02 585.72 622.67 585.72 627.17C585.72 631.68 589.37 635.33 593.88 635.33C598.38 635.33 602.03 631.68 602.03 627.17C602.03 622.67 598.38 619.02 593.88 619.02ZM200.04 159.3C195.63 159.3 192.07 162.86 192.07 167.27C192.07 171.67 195.63 175.24 200.04 175.24C204.44 175.24 208 171.67 208 167.27C208 162.86 204.44 159.3 200.04 159.3ZM167.02 191.79C162.58 191.79 158.97 195.39 158.97 199.83C158.97 204.28 162.58 207.88 167.02 207.88C171.47 207.88 175.07 204.28 175.07 199.83C175.07 195.39 171.47 191.79 167.02 191.79ZM659.18 224.71C654.74 224.71 651.13 228.31 651.13 232.75C651.13 237.2 654.74 240.8 659.18 240.8C663.63 240.8 667.23 237.2 667.23 232.75C667.23 228.31 663.63 224.71 659.18 224.71ZM330.79 684.47C326.31 684.47 322.68 688.1 322.68 692.58C322.68 697.06 326.31 700.68 330.79 700.68C335.26 700.68 338.89 697.06 338.89 692.58C338.89 688.1 335.26 684.47 330.79 684.47ZM560.74 126.34C556.27 126.34 552.65 129.96 552.65 134.43C552.65 138.9 556.27 142.52 560.74 142.52C565.21 142.52 568.83 138.9 568.83 134.43C568.83 129.96 565.21 126.34 560.74 126.34ZM101.05 454.87C96.81 454.87 93.37 458.31 93.37 462.55C93.37 466.8 96.81 470.23 101.05 470.23C105.29 470.23 108.73 466.8 108.73 462.55C108.73 458.31 105.29 454.87 101.05 454.87ZM494.96 93.86C490.57 93.86 487.01 97.42 487.01 101.81C487.01 106.2 490.57 109.76 494.96 109.76C499.35 109.76 502.91 106.2 502.91 101.81C502.91 97.42 499.35 93.86 494.96 93.86ZM199.69 619.03C195.32 619.03 191.77 622.58 191.77 626.95C191.77 631.32 195.32 634.87 199.69 634.87C204.06 634.87 207.61 631.32 207.61 626.95C207.61 622.58 204.06 619.03 199.69 619.03ZM166.83 586.37C162.65 586.37 159.26 589.76 159.26 593.94C159.26 598.12 162.65 601.51 166.83 601.51C171.01 601.51 174.4 598.12 174.4 593.94C174.4 589.76 171.01 586.37 166.83 586.37ZM692.4 290.65C688.08 290.65 684.57 294.16 684.57 298.48C684.57 302.81 688.08 306.31 692.4 306.31C696.73 306.31 700.23 302.81 700.23 298.48C700.23 294.16 696.73 290.65 692.4 290.65ZM134.27 224.8C129.95 224.8 126.46 228.29 126.46 232.61C126.46 236.92 129.95 240.41 134.27 240.41C138.58 240.41 142.07 236.92 142.07 232.61C142.07 228.29 138.58 224.8 134.27 224.8ZM232.77 126.11C228.37 126.11 224.81 129.67 224.81 134.07C224.81 138.46 228.37 142.02 232.77 142.02C237.16 142.02 240.72 138.46 240.72 134.07C240.72 129.67 237.16 126.11 232.77 126.11ZM692.42 487.38C688.03 487.38 684.48 490.94 684.48 495.32C684.48 499.71 688.03 503.27 692.42 503.27C696.81 503.27 700.37 499.71 700.37 495.32C700.37 490.94 696.81 487.38 692.42 487.38ZM297.99 93.84C293.65 93.84 290.14 97.36 290.14 101.7C290.14 106.04 293.65 109.56 297.99 109.56C302.33 109.56 305.85 106.04 305.85 101.7C305.85 97.36 302.33 93.84 297.99 93.84ZM659.58 553.53C655.23 553.53 651.7 557.06 651.7 561.42C651.7 565.77 655.23 569.31 659.58 569.31C663.94 569.31 667.47 565.77 667.47 561.42C667.47 557.06 663.94 553.53 659.58 553.53ZM561.03 651.99C556.66 651.99 553.12 655.53 553.12 659.9C553.12 664.26 556.66 667.8 561.03 667.8C565.39 667.8 568.93 664.26 568.93 659.9C568.93 655.53 565.39 651.99 561.03 651.99ZM495.28 684.94C491.07 684.94 487.65 688.35 487.65 692.57C487.65 696.78 491.07 700.2 495.28 700.2C499.5 700.2 502.92 696.78 502.92 692.57C502.92 688.35 499.5 684.94 495.28 684.94ZM297.8 684.95C293.56 684.95 290.11 688.39 290.11 692.63C290.11 696.88 293.56 700.32 297.8 700.32C302.05 700.32 305.49 696.88 305.49 692.63C305.49 688.39 302.05 684.95 297.8 684.95ZM101.09 488.16C97.04 488.16 93.76 491.44 93.76 495.49C93.76 499.54 97.04 502.82 101.09 502.82C105.14 502.82 108.42 499.54 108.42 495.49C108.42 491.44 105.14 488.16 101.09 488.16ZM133.81 553.63C129.76 553.63 126.48 556.91 126.48 560.96C126.48 565.01 129.76 568.29 133.81 568.29C137.86 568.29 141.14 565.01 141.14 560.96C141.14 556.91 137.86 553.63 133.81 553.63ZM232.49 651.92C228.29 651.92 224.87 655.33 224.87 659.54C224.87 663.75 228.29 667.16 232.49 667.16C236.7 667.16 240.11 663.75 240.11 659.54C240.11 655.33 236.7 651.92 232.49 651.92ZM100.92 290.7C96.7 290.7 93.28 294.12 93.28 298.33C93.28 302.55 96.7 305.97 100.92 305.97C105.13 305.97 108.55 302.55 108.55 298.33C108.55 294.12 105.13 290.7 100.92 290.7ZM527.89 94.32C523.78 94.32 520.45 97.65 520.45 101.76C520.45 105.87 523.78 109.21 527.89 109.21C532.01 109.21 535.34 105.87 535.34 101.76C535.34 97.65 532.01 94.32 527.89 94.32ZM692.47 258.25C688.38 258.25 685.06 261.57 685.06 265.67C685.06 269.77 688.38 273.09 692.47 273.09C696.57 273.09 699.89 269.77 699.89 265.67C699.89 261.57 696.57 258.25 692.47 258.25ZM265.08 94.33C260.98 94.33 257.65 97.65 257.65 101.75C257.65 105.85 260.98 109.18 265.08 109.18C269.18 109.18 272.5 105.85 272.5 101.75C272.5 97.65 269.18 94.33 265.08 94.33ZM626.42 159.61C622.28 159.61 618.92 162.97 618.92 167.11C618.92 171.26 622.28 174.62 626.42 174.62C630.56 174.62 633.92 171.26 633.92 167.11C633.92 162.97 630.56 159.61 626.42 159.61ZM691.86 520.93C687.75 520.93 684.41 524.27 684.41 528.38C684.41 532.5 687.75 535.83 691.86 535.83C695.98 535.83 699.31 532.5 699.31 528.38C699.31 524.27 695.98 520.93 691.86 520.93ZM593.74 127.27C589.78 127.27 586.57 130.48 586.57 134.44C586.57 138.39 589.78 141.6 593.74 141.6C597.69 141.6 600.9 138.39 600.9 134.44C600.9 130.48 597.69 127.27 593.74 127.27ZM659.25 192.84C655.32 192.84 652.14 196.02 652.14 199.95C652.14 203.88 655.32 207.06 659.25 207.06C663.17 207.06 666.35 203.88 666.35 199.95C666.35 196.02 663.17 192.84 659.25 192.84ZM626.75 619.94C622.83 619.94 619.64 623.13 619.64 627.05C619.64 630.98 622.83 634.16 626.75 634.16C630.68 634.16 633.86 630.98 633.86 627.05C633.86 623.13 630.68 619.94 626.75 619.94ZM620.54 630.46C620.513 630.467 620.497 630.483 620.49 630.51C620.497 630.537 620.513 630.553 620.54 630.56C620.567 630.553 620.583 630.537 620.59 630.51C620.583 630.483 620.567 630.467 620.54 630.46ZM100.85 258.63C96.84 258.63 93.6 261.88 93.6 265.89C93.6 269.89 96.84 273.14 100.85 273.14C104.85 273.14 108.1 269.89 108.1 265.89C108.1 261.88 104.85 258.63 100.85 258.63ZM265.48 685.35C261.5 685.35 258.27 688.58 258.27 692.57C258.27 696.55 261.5 699.78 265.48 699.78C269.47 699.78 272.7 696.55 272.7 692.57C272.7 688.58 269.47 685.35 265.48 685.35ZM527.7 685.25C523.76 685.25 520.56 688.45 520.56 692.39C520.56 696.33 523.76 699.53 527.7 699.53C531.65 699.53 534.84 696.33 534.84 692.39C534.84 688.45 531.65 685.25 527.7 685.25ZM166.99 159.66C163 159.66 159.77 162.9 159.77 166.89C159.77 170.88 163 174.11 166.99 174.11C170.98 174.11 174.21 170.88 174.21 166.89C174.21 162.9 170.98 159.66 166.99 159.66ZM725.28 390.12C721.32 390.12 718.1 393.33 718.1 397.29C718.1 401.26 721.32 404.47 725.28 404.47C729.24 404.47 732.46 401.26 732.46 397.29C732.46 393.33 729.24 390.12 725.28 390.12ZM725.19 357.14C721.23 357.14 718.02 360.35 718.02 364.31C718.02 368.27 721.23 371.48 725.19 371.48C729.15 371.48 732.36 368.27 732.36 364.31C732.36 360.35 729.15 357.14 725.19 357.14ZM166.99 619.38C163.03 619.38 159.81 622.59 159.81 626.55C159.81 630.51 163.03 633.72 166.99 633.72C170.95 633.72 174.16 630.51 174.16 626.55C174.16 622.59 170.95 619.38 166.99 619.38ZM429.85 61.28C425.89 61.28 422.67 64.5 422.67 68.46C422.67 72.43 425.89 75.64 429.85 75.64C433.82 75.64 437.03 72.43 437.03 68.46C437.03 64.5 433.82 61.28 429.85 61.28ZM593.8 652.35C589.82 652.35 586.59 655.57 586.59 659.55C586.59 663.53 589.82 666.76 593.8 666.76C597.78 666.76 601 663.53 601 659.55C601 655.57 597.78 652.35 593.8 652.35ZM659.13 586.91C655.16 586.91 651.94 590.13 651.94 594.1C651.94 598.06 655.16 601.28 659.13 601.28C663.09 601.28 666.31 598.06 666.31 594.1C666.31 590.13 663.09 586.91 659.13 586.91ZM725.16 422.45C721.15 422.45 717.91 425.69 717.91 429.7C717.91 433.7 721.15 436.95 725.16 436.95C729.16 436.95 732.41 433.7 732.41 429.7C732.41 425.69 729.16 422.45 725.16 422.45ZM133.93 192.67C129.93 192.67 126.69 195.91 126.69 199.91C126.69 203.91 129.93 207.15 133.93 207.15C137.93 207.15 141.17 203.91 141.17 199.91C141.17 195.91 137.93 192.67 133.93 192.67ZM200.02 127.34C196.09 127.34 192.89 130.53 192.89 134.47C192.89 138.41 196.09 141.6 200.02 141.6C203.96 141.6 207.15 138.41 207.15 134.47C207.15 130.53 203.96 127.34 200.02 127.34ZM101.04 521.48C97.32 521.48 94.3 524.5 94.3 528.22C94.3 531.94 97.32 534.96 101.04 534.96C104.77 534.96 107.79 531.94 107.79 528.22C107.79 524.5 104.77 521.48 101.04 521.48ZM363.83 61.26C359.82 61.26 356.57 64.51 356.57 68.52C356.57 72.53 359.82 75.78 363.83 75.78C367.84 75.78 371.09 72.53 371.09 68.52C371.09 64.51 367.84 61.26 363.83 61.26ZM396.69 61.46C392.81 61.46 389.66 64.6 389.66 68.48C389.66 72.36 392.81 75.51 396.69 75.51C400.57 75.51 403.71 72.36 403.71 68.48C403.71 64.6 400.57 61.46 396.69 61.46ZM68.2 390.18C64.37 390.18 61.27 393.28 61.27 397.11C61.27 400.94 64.37 404.05 68.2 404.05C72.03 404.05 75.14 400.94 75.14 397.11C75.14 393.28 72.03 390.18 68.2 390.18ZM199.74 652.85C195.88 652.85 192.75 655.98 192.75 659.84C192.75 663.71 195.88 666.84 199.74 666.84C203.61 666.84 206.74 663.71 206.74 659.84C206.74 655.98 203.61 652.85 199.74 652.85ZM331.18 61.76C327.32 61.76 324.19 64.89 324.19 68.75C324.19 72.61 327.32 75.75 331.18 75.75C335.05 75.75 338.18 72.61 338.18 68.75C338.18 64.89 335.05 61.76 331.18 61.76ZM68.31 423.26C64.7 423.26 61.77 426.19 61.77 429.8C61.77 433.42 64.7 436.35 68.31 436.35C71.92 436.35 74.85 433.42 74.85 429.8C74.85 426.19 71.92 423.26 68.31 423.26ZM724.91 324.56C721.06 324.56 717.94 327.68 717.94 331.53C717.94 335.38 721.06 338.5 724.91 338.5C728.76 338.5 731.89 335.38 731.89 331.53C731.89 327.68 728.76 324.56 724.91 324.56ZM724.85 455.98C720.98 455.98 717.85 459.12 717.85 462.98C717.85 466.84 720.98 469.98 724.85 469.98C728.71 469.98 731.84 466.84 731.84 462.98C731.84 459.12 728.71 455.98 724.85 455.98ZM68.07 357.05C64.27 357.05 61.19 360.13 61.19 363.93C61.19 367.73 64.27 370.81 68.07 370.81C71.87 370.81 74.95 367.73 74.95 363.93C74.95 360.13 71.87 357.05 68.07 357.05ZM363.52 718.22C359.68 718.22 356.57 721.33 356.57 725.17C356.57 729.01 359.68 732.12 363.52 732.12C367.36 732.12 370.47 729.01 370.47 725.17C370.47 721.33 367.36 718.22 363.52 718.22ZM429.64 718.2C425.8 718.2 422.68 721.32 422.68 725.16C422.68 729 425.8 732.11 429.64 732.11C433.48 732.11 436.59 729 436.59 725.16C436.59 721.32 433.48 718.2 429.64 718.2ZM462.6 61.64C458.75 61.64 455.63 64.76 455.63 68.61C455.63 72.46 458.75 75.58 462.6 75.58C466.45 75.58 469.57 72.46 469.57 68.61C469.57 64.76 466.45 61.64 462.6 61.64ZM133.8 587.39C130.19 587.39 127.26 590.32 127.26 593.92C127.26 597.53 130.19 600.46 133.8 600.46C137.4 600.46 140.33 597.53 140.33 593.92C140.33 590.32 137.4 587.39 133.8 587.39ZM560.69 94.76C557.03 94.76 554.06 97.72 554.06 101.38C554.06 105.04 557.03 108.01 560.69 108.01C564.35 108.01 567.31 105.04 567.31 101.38C567.31 97.72 564.35 94.76 560.69 94.76ZM692.14 226.19C688.49 226.19 685.53 229.15 685.53 232.79C685.53 236.44 688.49 239.4 692.14 239.4C695.79 239.4 698.74 236.44 698.74 232.79C698.74 229.15 695.79 226.19 692.14 226.19ZM330.77 718.84C327.07 718.84 324.06 721.84 324.06 725.55C324.06 729.25 327.07 732.26 330.77 732.26C334.48 732.26 337.48 729.25 337.48 725.55C337.48 721.84 334.48 718.84 330.77 718.84ZM462.36 718.78C458.65 718.78 455.64 721.79 455.64 725.5C455.64 729.21 458.65 732.22 462.36 732.22C466.07 732.22 469.08 729.21 469.08 725.5C469.08 721.79 466.07 718.78 462.36 718.78ZM68.44 324.56C64.72 324.56 61.7 327.57 61.7 331.29C61.7 335.01 64.72 338.03 68.44 338.03C72.16 338.03 75.18 335.01 75.18 331.29C75.18 327.57 72.16 324.56 68.44 324.56ZM68.35 456.2C64.85 456.2 62.02 459.03 62.02 462.53C62.02 466.03 64.85 468.87 68.35 468.87C71.85 468.87 74.69 466.03 74.69 462.53C74.69 459.03 71.85 456.2 68.35 456.2ZM692.23 554.28C688.5 554.28 685.47 557.3 685.47 561.04C685.47 564.77 688.5 567.8 692.23 567.8C695.97 567.8 698.99 564.77 698.99 561.04C698.99 557.3 695.97 554.28 692.23 554.28ZM232.25 94.67C228.53 94.67 225.52 97.68 225.52 101.4C225.52 105.12 228.53 108.14 232.25 108.14C235.97 108.14 238.99 105.12 238.99 101.4C238.99 97.68 235.97 94.67 232.25 94.67ZM724.96 292.17C721.4 292.17 718.52 295.05 718.52 298.61C718.52 302.17 721.4 305.05 724.96 305.05C728.52 305.05 731.4 302.17 731.4 298.61C731.4 295.05 728.52 292.17 724.96 292.17ZM495.02 62.3C491.45 62.3 488.56 65.19 488.56 68.76C488.56 72.33 491.45 75.23 495.02 75.23C498.59 75.23 501.49 72.33 501.49 68.76C501.49 65.19 498.59 62.3 495.02 62.3ZM560.92 686.47C557.4 686.47 554.54 689.32 554.54 692.84C554.54 696.36 557.4 699.22 560.92 699.22C564.44 699.22 567.3 696.36 567.3 692.84C567.3 689.32 564.44 686.47 560.92 686.47ZM101.23 226.11C97.64 226.11 94.73 229.02 94.73 232.62C94.73 236.21 97.64 239.13 101.23 239.13C104.83 239.13 107.74 236.21 107.74 232.62C107.74 229.02 104.83 226.11 101.23 226.11ZM297.94 62.3C294.35 62.3 291.44 65.21 291.44 68.8C291.44 72.4 294.35 75.31 297.94 75.31C301.53 75.31 304.45 72.4 304.45 68.8C304.45 65.21 301.53 62.3 297.94 62.3ZM101.09 554.86C97.72 554.86 94.99 557.59 94.99 560.96C94.99 564.33 97.72 567.06 101.09 567.06C104.46 567.06 107.19 564.33 107.19 560.96C107.19 557.59 104.46 554.86 101.09 554.86ZM232.02 685.8C228.46 685.8 225.57 688.69 225.57 692.26C225.57 695.82 228.46 698.71 232.02 698.71C235.59 698.71 238.48 695.82 238.48 692.26C238.48 688.69 235.59 685.8 232.02 685.8ZM724.85 488.91C721.26 488.91 718.35 491.82 718.35 495.41C718.35 499 721.26 501.91 724.85 501.91C728.44 501.91 731.35 499 731.35 495.41C731.35 491.82 728.44 488.91 724.85 488.91ZM68.52 292.12C65.09 292.12 62.3 294.91 62.3 298.35C62.3 301.78 65.09 304.57 68.52 304.57C71.96 304.57 74.75 301.78 74.75 298.35C74.75 294.91 71.96 292.12 68.52 292.12ZM495.23 719.41C491.82 719.41 489.05 722.18 489.05 725.59C489.05 729.01 491.82 731.78 495.23 731.78C498.65 731.78 501.42 729.01 501.42 725.59C501.42 722.18 498.65 719.41 495.23 719.41ZM68.34 489.59C65.08 489.59 62.44 492.23 62.44 495.49C62.44 498.75 65.08 501.4 68.34 501.4C71.6 501.4 74.24 498.75 74.24 495.49C74.24 492.23 71.6 489.59 68.34 489.59ZM659.25 161.19C655.79 161.19 652.98 163.99 652.98 167.46C652.98 170.92 655.79 173.72 659.25 173.72C662.71 173.72 665.52 170.92 665.52 167.46C665.52 163.99 662.71 161.19 659.25 161.19ZM297.72 719.33C294.27 719.33 291.47 722.13 291.47 725.58C291.47 729.03 294.27 731.83 297.72 731.83C301.17 731.83 303.97 729.03 303.97 725.58C303.97 722.13 301.17 719.33 297.72 719.33ZM626.78 128.02C623.32 128.02 620.52 130.83 620.52 134.29C620.52 137.75 623.32 140.56 626.78 140.56C630.25 140.56 633.05 137.75 633.05 134.29C633.05 130.83 630.25 128.02 626.78 128.02ZM626.44 653.81C623.11 653.81 620.42 656.51 620.42 659.84C620.42 663.16 623.11 665.86 626.44 665.86C629.77 665.86 632.47 663.16 632.47 659.84C632.47 656.51 629.77 653.81 626.44 653.81ZM134.12 161.25C130.84 161.25 128.18 163.91 128.18 167.2C128.18 170.48 130.84 173.15 134.12 173.15C137.41 173.15 140.07 170.48 140.07 167.2C140.07 163.91 137.41 161.25 134.12 161.25ZM659.44 620.93C656.14 620.93 653.48 623.6 653.48 626.89C653.48 630.18 656.14 632.85 659.44 632.85C662.73 632.85 665.4 630.18 665.4 626.89C665.4 623.6 662.73 620.93 659.44 620.93ZM166.69 128.39C163.43 128.39 160.78 131.03 160.78 134.29C160.78 137.55 163.43 140.19 166.69 140.19C169.95 140.19 172.59 137.55 172.59 134.29C172.59 131.03 169.95 128.39 166.69 128.39ZM692.55 194.17C689.19 194.17 686.47 196.89 686.47 200.25C686.47 203.6 689.19 206.32 692.55 206.32C695.9 206.32 698.62 203.6 698.62 200.25C698.62 196.89 695.9 194.17 692.55 194.17ZM593.97 95.73C590.63 95.73 587.92 98.44 587.92 101.78C587.92 105.13 590.63 107.84 593.97 107.84C597.31 107.84 600.02 105.13 600.02 101.78C600.02 98.44 597.31 95.73 593.97 95.73ZM265.48 62.74C262.31 62.74 259.73 65.32 259.73 68.5C259.73 71.67 262.31 74.25 265.48 74.25C268.66 74.25 271.24 71.67 271.24 68.5C271.24 65.32 268.66 62.74 265.48 62.74ZM134.05 620.94C130.89 620.94 128.32 623.51 128.32 626.67C128.32 629.83 130.89 632.39 134.05 632.39C137.21 632.39 139.77 629.83 139.77 626.67C139.77 623.51 137.21 620.94 134.05 620.94ZM167.02 653.68C163.79 653.68 161.17 656.29 161.17 659.52C161.17 662.74 163.79 665.36 167.02 665.36C170.24 665.36 172.86 662.74 172.86 659.52C172.86 656.29 170.24 653.68 167.02 653.68ZM725.19 522.85C722.01 522.85 719.43 525.44 719.43 528.62C719.43 531.81 722.01 534.39 725.19 534.39C728.38 534.39 730.96 531.81 730.96 528.62C730.96 525.44 728.38 522.85 725.19 522.85ZM68.5 260.14C65.33 260.14 62.76 262.71 62.76 265.88C62.76 269.05 65.33 271.62 68.5 271.62C71.67 271.62 74.24 269.05 74.24 265.88C74.24 262.71 71.67 260.14 68.5 260.14ZM527.63 719.83C524.46 719.83 521.89 722.4 521.89 725.57C521.89 728.74 524.46 731.31 527.63 731.31C530.8 731.31 533.37 728.74 533.37 725.57C533.37 722.4 530.8 719.83 527.63 719.83ZM68.07 522.91C65.14 522.91 62.76 525.28 62.76 528.22C62.76 531.15 65.14 533.53 68.07 533.53C71.01 533.53 73.39 531.15 73.39 528.22C73.39 525.28 71.01 522.91 68.07 522.91ZM265.11 719.64C262.03 719.64 259.54 722.14 259.54 725.22C259.54 728.3 262.03 730.79 265.11 730.79C268.19 730.79 270.69 728.3 270.69 725.22C270.69 722.14 268.19 719.64 265.11 719.64ZM757.97 391.61C754.95 391.61 752.5 394.05 752.5 397.08C752.5 400.1 754.95 402.55 757.97 402.55C760.99 402.55 763.44 400.1 763.44 397.08C763.44 394.05 760.99 391.61 757.97 391.61ZM396.58 30.19C393.54 30.19 391.07 32.66 391.07 35.7C391.07 38.75 393.54 41.22 396.58 41.22C399.63 41.22 402.1 38.75 402.1 35.7C402.1 32.66 399.63 30.19 396.58 30.19ZM758 424.48C754.94 424.48 752.46 426.96 752.46 430.02C752.46 433.08 754.94 435.56 758 435.56C761.05 435.56 763.53 433.08 763.53 430.02C763.53 426.96 761.05 424.48 758 424.48ZM757.99 359.01C754.94 359.01 752.46 361.49 752.46 364.54C752.46 367.6 754.94 370.08 757.99 370.08C761.05 370.08 763.53 367.6 763.53 364.54C763.53 361.49 761.05 359.01 757.99 359.01ZM101.1 588.77C98.25 588.77 95.95 591.08 95.95 593.92C95.95 596.77 98.25 599.08 101.1 599.08C103.95 599.08 106.25 596.77 106.25 593.92C106.25 591.08 103.95 588.77 101.1 588.77ZM429.28 382.19C420.94 382.19 414.18 388.95 414.18 397.28C414.18 405.62 420.94 412.38 429.28 412.38C437.62 412.38 444.38 405.62 444.38 397.28C444.38 388.95 437.62 382.19 429.28 382.19ZM757.57 457.36C754.63 457.36 752.25 459.74 752.25 462.68C752.25 465.62 754.63 468 757.57 468C760.51 468 762.89 465.62 762.89 462.68C762.89 459.74 760.51 457.36 757.57 457.36ZM429.22 752.61C426.28 752.61 423.89 755 423.89 757.94C423.89 760.89 426.28 763.27 429.22 763.27C432.16 763.27 434.55 760.89 434.55 757.94C434.55 755 432.16 752.61 429.22 752.61ZM725.31 227.41C722.36 227.41 719.98 229.8 719.98 232.74C719.98 235.69 722.36 238.08 725.31 238.08C728.26 238.08 730.64 235.69 730.64 232.74C730.64 229.8 728.26 227.41 725.31 227.41ZM758.19 325.88C755.24 325.88 752.85 328.27 752.85 331.23C752.85 334.18 755.24 336.57 758.19 336.57C761.14 336.57 763.53 334.18 763.53 331.23C763.53 328.27 761.14 325.88 758.19 325.88ZM396.24 752.8C393.34 752.8 391 755.14 391 758.03C391 760.93 393.34 763.27 396.24 763.27C399.13 763.27 401.47 760.93 401.47 758.03C401.47 755.14 399.13 752.8 396.24 752.8ZM35.61 391.77C32.77 391.77 30.47 394.06 30.47 396.9C30.47 399.74 32.77 402.04 35.61 402.04C38.45 402.04 40.75 399.74 40.75 396.9C40.75 394.06 38.45 391.77 35.61 391.77ZM363.49 753.2C360.66 753.2 358.36 755.5 358.36 758.33C358.36 761.16 360.66 763.45 363.49 763.45C366.31 763.45 368.61 761.16 368.61 758.33C368.61 755.5 366.31 753.2 363.49 753.2ZM724.83 556.33C722 556.33 719.71 558.62 719.71 561.45C719.71 564.28 722 566.58 724.83 566.58C727.66 566.58 729.95 564.28 729.95 561.45C729.95 558.62 727.66 556.33 724.83 556.33ZM35.37 425.01C32.73 425.01 30.59 427.15 30.59 429.79C30.59 432.42 32.73 434.56 35.37 434.56C38 434.56 40.14 432.42 40.14 429.79C40.14 427.15 38 425.01 35.37 425.01ZM659.56 129.61C656.75 129.61 654.48 131.88 654.48 134.69C654.48 137.5 656.75 139.77 659.56 139.77C662.37 139.77 664.64 137.5 664.64 134.69C664.64 131.88 662.37 129.61 659.56 129.61ZM232.77 63.67C229.94 63.67 227.64 65.97 227.64 68.8C227.64 71.63 229.94 73.92 232.77 73.92C235.6 73.92 237.89 71.63 237.89 68.8C237.89 65.97 235.6 63.67 232.77 63.67ZM528.36 384.1C521.22 384.1 515.43 389.88 515.43 397.03C515.43 404.17 521.22 409.96 528.36 409.96C535.5 409.96 541.29 404.17 541.29 397.03C541.29 389.88 535.5 384.1 528.36 384.1ZM35.46 326.49C32.81 326.49 30.66 328.64 30.66 331.3C30.66 333.95 32.81 336.1 35.46 336.1C38.12 336.1 40.27 333.95 40.27 331.3C40.27 328.64 38.12 326.49 35.46 326.49ZM560.86 720.84C558.25 720.84 556.13 722.96 556.13 725.57C556.13 728.19 558.25 730.31 560.86 730.31C563.48 730.31 565.6 728.19 565.6 725.57C565.6 722.96 563.48 720.84 560.86 720.84ZM68.44 228.05C65.79 228.05 63.63 230.2 63.63 232.86C63.63 235.51 65.79 237.67 68.44 237.67C71.1 237.67 73.25 235.51 73.25 232.86C73.25 230.2 71.1 228.05 68.44 228.05ZM462.37 753.38C459.75 753.38 457.63 755.5 457.63 758.12C457.63 760.74 459.75 762.86 462.37 762.86C464.99 762.86 467.11 760.74 467.11 758.12C467.11 755.5 464.99 753.38 462.37 753.38ZM330.95 382.8C323.11 382.8 316.75 389.16 316.75 397C316.75 404.84 323.11 411.2 330.95 411.2C338.8 411.2 345.16 404.84 345.16 397C345.16 389.16 338.8 382.8 330.95 382.8ZM363.71 382.39C355.46 382.39 348.77 389.08 348.77 397.34C348.77 405.59 355.46 412.28 363.71 412.28C371.97 412.28 378.66 405.59 378.66 397.34C378.66 389.08 371.97 382.39 363.71 382.39ZM659.1 654.76C656.44 654.76 654.28 656.92 654.28 659.59C654.28 662.25 656.44 664.41 659.1 664.41C661.77 664.41 663.93 662.25 663.93 659.59C663.93 656.92 661.77 654.76 659.1 654.76ZM692.15 162.6C689.47 162.6 687.3 164.77 687.3 167.45C687.3 170.13 689.47 172.29 692.15 172.29C694.83 172.29 697 170.13 697 167.45C697 164.77 694.83 162.6 692.15 162.6ZM757.55 490.88C754.88 490.88 752.72 493.05 752.72 495.72C752.72 498.38 754.88 500.55 757.55 500.55C760.22 500.55 762.38 498.38 762.38 495.72C762.38 493.05 760.22 490.88 757.55 490.88ZM133.84 129.64C131.18 129.64 129.01 131.8 129.01 134.47C129.01 137.13 131.18 139.3 133.84 139.3C136.51 139.3 138.68 137.13 138.68 134.47C138.68 131.8 136.51 129.64 133.84 129.64ZM68.08 556.5C65.61 556.5 63.61 558.5 63.61 560.97C63.61 563.44 65.61 565.45 68.08 565.45C70.56 565.45 72.56 563.44 72.56 560.97C72.56 558.5 70.56 556.5 68.08 556.5ZM495.3 31.15C492.61 31.15 490.44 33.33 490.44 36.01C490.44 38.7 492.61 40.88 495.3 40.88C497.98 40.88 500.16 38.7 500.16 36.01C500.16 33.33 497.98 31.15 495.3 31.15ZM232.42 720.73C229.76 720.73 227.59 722.89 227.59 725.56C227.59 728.22 229.76 730.39 232.42 730.39C235.09 730.39 237.25 728.22 237.25 725.56C237.25 722.89 235.09 720.73 232.42 720.73ZM758.18 293.97C755.5 293.97 753.32 296.14 753.32 298.83C753.32 301.51 755.5 303.69 758.18 303.69C760.86 303.69 763.04 301.51 763.04 298.83C763.04 296.14 760.86 293.97 758.18 293.97ZM35.38 458.06C32.91 458.06 30.91 460.06 30.91 462.53C30.91 465.01 32.91 467.01 35.38 467.01C37.85 467.01 39.85 465.01 39.85 462.53C39.85 460.06 37.85 458.06 35.38 458.06ZM626.82 96.56C624.15 96.56 621.98 98.73 621.98 101.4C621.98 104.08 624.15 106.24 626.82 106.24C629.5 106.24 631.66 104.08 631.66 101.4C631.66 98.73 629.5 96.56 626.82 96.56ZM330.78 753.13C328.1 753.13 325.93 755.3 325.93 757.98C325.93 760.65 328.1 762.82 330.78 762.82C333.45 762.82 335.62 760.65 335.62 757.98C335.62 755.3 333.45 753.13 330.78 753.13ZM166.57 97.09C163.99 97.09 161.9 99.19 161.9 101.77C161.9 104.35 163.99 106.44 166.57 106.44C169.15 106.44 171.25 104.35 171.25 101.77C171.25 99.19 169.15 97.09 166.57 97.09ZM298.06 31.08C295.48 31.08 293.38 33.18 293.38 35.76C293.38 38.34 295.48 40.43 298.06 40.43C300.64 40.43 302.73 38.34 302.73 35.76C302.73 33.18 300.64 31.08 298.06 31.08ZM691.99 622.38C689.53 622.38 687.53 624.38 687.53 626.84C687.53 629.3 689.53 631.3 691.99 631.3C694.45 631.3 696.45 629.3 696.45 626.84C696.45 624.38 694.45 622.38 691.99 622.38ZM626.26 688.27C623.87 688.27 621.93 690.21 621.93 692.6C621.93 694.99 623.87 696.93 626.26 696.93C628.65 696.93 630.59 694.99 630.59 692.6C630.59 690.21 628.65 688.27 626.26 688.27ZM35.46 294C33.07 294 31.12 295.95 31.12 298.35C31.12 300.75 33.07 302.69 35.46 302.69C37.86 302.69 39.81 300.75 39.81 298.35C39.81 295.95 37.86 294 35.46 294ZM133.93 655.3C131.54 655.3 129.6 657.24 129.6 659.63C129.6 662.02 131.54 663.96 133.93 663.96C136.32 663.96 138.26 662.02 138.26 659.63C138.26 657.24 136.32 655.3 133.93 655.3ZM495.35 753.7C492.95 753.7 491 755.65 491 758.05C491 760.45 492.95 762.4 495.35 762.4C497.75 762.4 499.7 760.45 499.7 758.05C499.7 755.65 497.75 753.7 495.35 753.7ZM100.9 162.79C98.55 162.79 96.64 164.69 96.64 167.05C96.64 169.4 98.55 171.31 100.9 171.31C103.25 171.31 105.16 169.4 105.16 167.05C105.16 164.69 103.25 162.79 100.9 162.79ZM166.99 688.21C164.57 688.21 162.62 690.17 162.62 692.58C162.62 695 164.57 696.96 166.99 696.96C169.4 696.96 171.36 695 171.36 692.58C171.36 690.17 169.4 688.21 166.99 688.21ZM35.38 491.51C33.17 491.51 31.38 493.3 31.38 495.51C31.38 497.72 33.17 499.51 35.38 499.51C37.59 499.51 39.38 497.72 39.38 495.51C39.38 493.3 37.59 491.51 35.38 491.51ZM100.88 622.18C98.46 622.18 96.5 624.14 96.5 626.56C96.5 628.98 98.46 630.95 100.88 630.95C103.3 630.95 105.27 628.98 105.27 626.56C105.27 624.14 103.3 622.18 100.88 622.18ZM729.1 199.91C729.093 199.91 729.09 199.91 729.09 199.91C729.09 199.917 729.093 199.92 729.1 199.92C729.1 199.92 729.1 199.917 729.1 199.91ZM724.89 195.99C722.58 195.99 720.7 197.87 720.7 200.18C720.7 202.49 722.58 204.36 724.89 204.36C727.2 204.36 729.08 202.49 729.08 200.18C729.08 197.87 727.2 195.99 724.89 195.99ZM594.07 64.5C591.78 64.5 589.92 66.35 589.92 68.65C589.92 70.94 591.78 72.8 594.07 72.8C596.37 72.8 598.22 70.94 598.22 68.65C598.22 66.35 596.37 64.5 594.07 64.5ZM527.93 31.53C525.64 31.53 523.78 33.39 523.78 35.68C523.78 37.97 525.64 39.83 527.93 39.83C530.23 39.83 532.08 37.97 532.08 35.68C532.08 33.39 530.23 31.53 527.93 31.53ZM757.83 261.36C755.55 261.36 753.71 263.2 753.71 265.48C753.71 267.75 755.55 269.59 757.83 269.59C760.1 269.59 761.95 267.75 761.95 265.48C761.95 263.2 760.1 261.36 757.83 261.36ZM593.81 721.58C591.62 721.58 589.84 723.36 589.84 725.55C589.84 727.75 591.62 729.52 593.81 729.52C596 729.52 597.78 727.75 597.78 725.55C597.78 723.36 596 721.58 593.81 721.58ZM265.32 32.06C263.12 32.06 261.34 33.83 261.34 36.03C261.34 38.22 263.12 40 265.32 40C267.51 40 269.29 38.22 269.29 36.03C269.29 33.83 267.51 32.06 265.32 32.06ZM757.64 524.71C755.44 524.71 753.67 526.49 753.67 528.68C753.67 530.87 755.44 532.65 757.64 532.65C759.83 532.65 761.61 530.87 761.61 528.68C761.61 526.49 759.83 524.71 757.64 524.71ZM725.27 590.36C723.15 590.36 721.44 592.08 721.44 594.2C721.44 596.32 723.15 598.04 725.27 598.04C727.4 598.04 729.11 596.32 729.11 594.2C729.11 592.08 727.4 590.36 725.27 590.36ZM199.95 64.74C197.88 64.74 196.21 66.41 196.21 68.48C196.21 70.54 197.88 72.22 199.95 72.22C202.02 72.22 203.69 70.54 203.69 68.48C203.69 66.41 202.02 64.74 199.95 64.74ZM264.96 384.15C257.81 384.15 252 389.95 252 397.1C252 404.26 257.81 410.06 264.96 410.06C272.12 410.06 277.92 404.26 277.92 397.1C277.92 389.95 272.12 384.15 264.96 384.15ZM68.32 196.6C66.34 196.6 64.73 198.21 64.73 200.19C64.73 202.17 66.34 203.78 68.32 203.78C70.3 203.78 71.91 202.17 71.91 200.19C71.91 198.21 70.3 196.6 68.32 196.6ZM396.7 317.13C388.86 317.13 382.51 323.48 382.51 331.32C382.51 339.16 388.86 345.52 396.7 345.52C404.54 345.52 410.9 339.16 410.9 331.32C410.9 323.48 404.54 317.13 396.7 317.13ZM528.04 754.62C526 754.62 524.34 756.28 524.34 758.33C524.34 760.37 526 762.03 528.04 762.03C530.09 762.03 531.75 760.37 531.75 758.33C531.75 756.28 530.09 754.62 528.04 754.62ZM35.16 262.07C33.17 262.07 31.56 263.68 31.56 265.67C31.56 267.66 33.17 269.28 35.16 269.28C37.15 269.28 38.77 267.66 38.77 265.67C38.77 263.68 37.15 262.07 35.16 262.07ZM265.24 754.84C263.45 754.84 261.99 756.3 261.99 758.09C261.99 759.89 263.45 761.35 265.24 761.35C267.04 761.35 268.5 759.89 268.5 758.09C268.5 756.3 267.04 754.84 265.24 754.84ZM35.33 525C33.53 525 32.07 526.46 32.07 528.26C32.07 530.06 33.53 531.52 35.33 531.52C37.13 531.52 38.59 530.06 38.59 528.26C38.59 526.46 37.13 525 35.33 525ZM68.14 590.67C66.34 590.67 64.88 592.12 64.88 593.92C64.88 595.72 66.34 597.18 68.14 597.18C69.93 597.18 71.39 595.72 71.39 593.92C71.39 592.12 69.93 590.67 68.14 590.67ZM199.56 722.07C197.75 722.07 196.28 723.54 196.28 725.35C196.28 727.16 197.75 728.63 199.56 728.63C201.37 728.63 202.84 727.16 202.84 725.35C202.84 723.54 201.37 722.07 199.56 722.07ZM790.65 393.9C788.77 393.9 787.25 395.42 787.25 397.29C787.25 399.16 788.77 400.68 790.65 400.68C792.52 400.68 794.04 399.16 794.04 397.29C794.04 395.42 792.52 393.9 790.65 393.9ZM790.9 361.3C789.15 361.3 787.74 362.72 787.74 364.46C787.74 366.2 789.15 367.62 790.9 367.62C792.64 367.62 794.06 366.2 794.06 364.46C794.06 362.72 792.64 361.3 790.9 361.3ZM757.81 229.9C756.06 229.9 754.65 231.31 754.65 233.06C754.65 234.81 756.06 236.22 757.81 236.22C759.56 236.22 760.97 234.81 760.97 233.06C760.97 231.31 759.56 229.9 757.81 229.9ZM429.66 0.170006C428.1 0.170006 426.83 1.44 426.83 3C426.83 4.56 428.1 5.83 429.66 5.83C431.22 5.83 432.49 4.56 432.49 3C432.49 1.44 431.22 0.170006 429.66 0.170006ZM363.98 0.18C362.42 0.18 361.15 1.45 361.15 3.01C361.15 4.57 362.42 5.84 363.98 5.84C365.54 5.84 366.81 4.57 366.81 3.01C366.81 1.45 365.54 0.18 363.98 0.18ZM790.78 328.79C789.37 328.79 788.22 329.94 788.22 331.35C788.22 332.76 789.37 333.91 790.78 333.91C792.19 333.91 793.34 332.76 793.34 331.35C793.34 329.94 792.19 328.79 790.78 328.79ZM659.12 689.76C657.56 689.76 656.31 691.01 656.31 692.57C656.31 694.12 657.56 695.38 659.12 695.38C660.67 695.38 661.92 694.12 661.92 692.57C661.92 691.01 660.67 689.76 659.12 689.76ZM429.43 788.48C428.01 788.48 426.87 789.63 426.87 791.04C426.87 792.45 428.01 793.6 429.43 793.6C430.84 793.6 431.99 792.45 431.99 791.04C431.99 789.63 430.84 788.48 429.43 788.48ZM396.45 788.48C395.04 788.48 393.89 789.63 393.89 791.04C393.89 792.45 395.04 793.6 396.45 793.6C397.86 793.6 399.01 792.45 399.01 791.04C399.01 789.63 397.86 788.48 396.45 788.48ZM692.26 656.64C690.68 656.64 689.4 657.92 689.4 659.5C689.4 661.08 690.68 662.36 692.26 662.36C693.84 662.36 695.12 661.08 695.12 659.5C695.12 657.92 693.84 656.64 692.26 656.64ZM134.03 98.95C132.62 98.95 131.48 100.1 131.48 101.51C131.48 102.92 132.62 104.07 134.03 104.07C135.45 104.07 136.59 102.92 136.59 101.51C136.59 100.1 135.45 98.95 134.03 98.95ZM790.77 460.2C789.36 460.2 788.21 461.34 788.21 462.76C788.21 464.17 789.36 465.32 790.77 465.32C792.18 465.32 793.33 464.17 793.33 462.76C793.33 461.34 792.18 460.2 790.77 460.2ZM462.4 0.510002C460.99 0.510002 459.84 1.66 459.84 3.07C459.84 4.48 460.99 5.63 462.4 5.63C463.82 5.63 464.96 4.48 464.96 3.07C464.96 1.66 463.82 0.510002 462.4 0.510002ZM330.96 0.510002C329.55 0.510002 328.4 1.66 328.4 3.07C328.4 4.48 329.55 5.63 330.96 5.63C332.38 5.63 333.52 4.48 333.52 3.07C333.52 1.66 332.38 0.510002 330.96 0.510002ZM757.79 558.64C756.38 558.64 755.24 559.78 755.24 561.2C755.24 562.61 756.38 563.76 757.79 563.76C759.21 563.76 760.35 562.61 760.35 561.2C760.35 559.78 759.21 558.64 757.79 558.64ZM560.87 755.51C559.45 755.51 558.31 756.66 558.31 758.07C558.31 759.49 559.45 760.63 560.87 760.63C562.28 760.63 563.43 759.49 563.43 758.07C563.43 756.66 562.28 755.51 560.87 755.51ZM2.59 394.26C1.18 394.26 0.0299988 395.41 0.0299988 396.82C0.0299988 398.24 1.18 399.39 2.59 399.39C4.01 399.39 5.16 398.24 5.16 396.82C5.16 395.41 4.01 394.26 2.59 394.26ZM725.16 624.54C723.8 624.54 722.7 625.64 722.7 627C722.7 628.36 723.8 629.46 725.16 629.46C726.52 629.46 727.62 628.36 727.62 627C727.62 625.64 726.52 624.54 725.16 624.54ZM35.48 230.43C34.12 230.43 33.02 231.53 33.02 232.89C33.02 234.25 34.12 235.35 35.48 235.35C36.84 235.35 37.94 234.25 37.94 232.89C37.94 231.53 36.84 230.43 35.48 230.43ZM133.88 690.11C132.56 690.11 131.49 691.19 131.49 692.51C131.49 693.83 132.56 694.9 133.88 694.9C135.2 694.9 136.27 693.83 136.27 692.51C136.27 691.19 135.2 690.11 133.88 690.11ZM626.29 722.97C624.93 722.97 623.83 724.07 623.83 725.42C623.83 726.78 624.93 727.88 626.29 727.88C627.64 727.88 628.74 726.78 628.74 725.42C628.74 724.07 627.64 722.97 626.29 722.97ZM2.62 328.79C1.36 328.79 0.330002 329.82 0.330002 331.08C0.330002 332.35 1.36 333.37 2.62 333.37C3.88 333.37 4.91 332.35 4.91 331.08C4.91 329.82 3.88 328.79 2.62 328.79ZM35.33 558.67C34.06 558.67 33.03 559.7 33.03 560.97C33.03 562.24 34.06 563.27 35.33 563.27C36.6 563.27 37.63 562.24 37.63 560.97C37.63 559.7 36.6 558.67 35.33 558.67ZM166.73 66.28C165.43 66.28 164.37 67.33 164.37 68.63C164.37 69.93 165.43 70.99 166.73 70.99C168.03 70.99 169.08 69.93 169.08 68.63C169.08 67.33 168.03 66.28 166.73 66.28ZM462.12 788.77C460.82 788.77 459.77 789.83 459.77 791.13C459.77 792.43 460.82 793.48 462.12 793.48C463.42 793.48 464.48 792.43 464.48 791.13C464.48 789.83 463.42 788.77 462.12 788.77ZM363.66 788.75C362.35 788.75 361.29 789.81 361.29 791.12C361.29 792.42 362.35 793.48 363.66 793.48C364.97 793.48 366.02 792.42 366.02 791.12C366.02 789.81 364.97 788.75 363.66 788.75ZM101.03 657.08C99.65 657.08 98.53 658.2 98.53 659.58C98.53 660.96 99.65 662.08 101.03 662.08C102.41 662.08 103.53 660.96 103.53 659.58C103.53 658.2 102.41 657.08 101.03 657.08ZM2.65 427.52C1.38 427.52 0.360001 428.55 0.360001 429.82C0.360001 431.09 1.38 432.11 2.65 432.11C3.92 432.11 4.95 431.09 4.95 429.82C4.95 428.55 3.92 427.52 2.65 427.52ZM232.22 755.79C230.91 755.79 229.85 756.85 229.85 758.15C229.85 759.46 230.91 760.51 232.22 760.51C233.52 760.51 234.58 759.46 234.58 758.15C234.58 756.85 233.52 755.79 232.22 755.79ZM331.14 788.84C329.98 788.84 329.04 789.78 329.04 790.94C329.04 792.09 329.98 793.03 331.14 793.03C332.29 793.03 333.23 792.09 333.23 790.94C333.23 789.78 332.29 788.84 331.14 788.84ZM68.42 164.84C67.27 164.84 66.34 165.77 66.34 166.92C66.34 168.07 67.27 169 68.42 169C69.57 169 70.5 168.07 70.5 166.92C70.5 165.77 69.57 164.84 68.42 164.84ZM495.31 1.19C494.23 1.19 493.35 2.06 493.35 3.14C493.35 4.22 494.23 5.10001 495.31 5.10001C496.39 5.10001 497.26 4.22 497.26 3.14C497.26 2.06 496.39 1.19 495.31 1.19ZM2.65 460.58C1.58 460.58 0.709999 461.45 0.709999 462.52C0.709999 463.6 1.58 464.46 2.65 464.46C3.73 464.46 4.59 463.6 4.59 462.52C4.59 461.45 3.73 460.58 2.65 460.58ZM792.75 299.06C792.743 299.06 792.74 299.06 792.74 299.06C792.74 299.067 792.743 299.07 792.75 299.07C792.75 299.07 792.75 299.067 792.75 299.06ZM790.63 296.41C789.47 296.41 788.52 297.35 788.52 298.52C788.52 299.68 789.47 300.63 790.63 300.63C791.8 300.63 792.74 299.68 792.74 298.52C792.74 297.35 791.8 296.41 790.63 296.41ZM396.63 415.07C388.45 415.07 381.82 421.7 381.82 429.88C381.82 438.06 388.45 444.69 396.63 444.69C404.81 444.69 411.44 438.06 411.44 429.88C411.44 421.7 404.81 415.07 396.63 415.07ZM298.36 2.19C297.56 2.19 296.91 2.84 296.91 3.64C296.91 4.45 297.56 5.10001 298.36 5.10001C299.17 5.10001 299.82 4.45 299.82 3.64C299.82 2.84 299.17 2.19 298.36 2.19ZM790.06 494.12C789.28 494.12 788.65 494.75 788.65 495.53C788.65 496.3 789.28 496.93 790.06 496.93C790.83 496.93 791.46 496.3 791.46 495.53C791.46 494.75 790.83 494.12 790.06 494.12ZM68.75 624.97C68.01 624.97 67.41 625.57 67.41 626.31C67.41 627.04 68.01 627.64 68.75 627.64C69.48 627.64 70.08 627.04 70.08 626.31C70.08 625.57 69.48 624.97 68.75 624.97ZM167.25 723.38C166.49 723.38 165.87 724 165.87 724.76C165.87 725.52 166.49 726.14 167.25 726.14C168.01 726.14 168.63 725.52 168.63 724.76C168.63 724 168.01 723.38 167.25 723.38ZM396.46 448.61C388.61 448.61 382.24 454.98 382.24 462.83C382.24 470.69 388.61 477.05 396.46 477.05C404.31 477.05 410.68 470.69 410.68 462.83C410.68 454.98 404.31 448.61 396.46 448.61ZM626.72 288.86C621.23 288.86 616.78 293.31 616.78 298.81C616.78 304.3 621.23 308.75 626.72 308.75C632.21 308.75 636.67 304.3 636.67 298.81C636.67 293.31 632.21 288.86 626.72 288.86ZM396.66 482.25C389.21 482.25 383.16 488.3 383.16 495.75C383.16 503.2 389.21 509.24 396.66 509.24C404.11 509.24 410.16 503.2 410.16 495.75C410.16 488.3 404.11 482.25 396.66 482.25ZM396.65 583.05C390.48 583.05 385.49 588.05 385.49 594.21C385.49 600.37 390.48 605.37 396.65 605.37C402.81 605.37 407.81 600.37 407.81 594.21C407.81 588.05 402.81 583.05 396.65 583.05ZM396.72 381.68C388.3 381.68 381.47 388.51 381.47 396.93C381.47 405.35 388.3 412.18 396.72 412.18C405.14 412.18 411.97 405.35 411.97 396.93C411.97 388.51 405.14 381.68 396.72 381.68ZM396.41 718.64C392.68 718.64 389.66 721.67 389.66 725.39C389.66 729.12 392.68 732.14 396.41 732.14C400.14 732.14 403.16 729.12 403.16 725.39C403.16 721.67 400.14 718.64 396.41 718.64ZM396.71 549.26C390.16 549.26 384.85 554.57 384.85 561.12C384.85 567.67 390.16 572.97 396.71 572.97C403.25 572.97 408.56 567.67 408.56 561.12C408.56 554.57 403.25 549.26 396.71 549.26ZM560.91 517.73C554.99 517.73 550.19 522.53 550.19 528.45C550.19 534.38 554.99 539.18 560.91 539.18C566.83 539.18 571.63 534.38 571.63 528.45C571.63 522.53 566.83 517.73 560.91 517.73ZM462.17 583.2C456.25 583.2 451.45 588 451.45 593.92C451.45 599.85 456.25 604.65 462.17 604.65C468.09 604.65 472.89 599.85 472.89 593.92C472.89 588 468.09 583.2 462.17 583.2ZM232.47 384.57C225.89 384.57 220.56 389.9 220.56 396.48C220.56 403.05 225.89 408.38 232.47 408.38C239.04 408.38 244.37 403.05 244.37 396.48C244.37 389.9 239.04 384.57 232.47 384.57ZM396.74 650.54C391.7 650.54 387.62 654.62 387.62 659.66C387.62 664.69 391.7 668.78 396.74 668.78C401.77 668.78 405.86 664.69 405.86 659.66C405.86 654.62 401.77 650.54 396.74 650.54ZM232.5 551.18C226.97 551.18 222.49 555.66 222.49 561.19C222.49 566.72 226.97 571.21 232.5 571.21C238.03 571.21 242.51 566.72 242.51 561.19C242.51 555.66 238.03 551.18 232.5 551.18ZM166.83 288.84C161.56 288.84 157.29 293.11 157.29 298.38C157.29 303.65 161.56 307.92 166.83 307.92C172.1 307.92 176.37 303.65 176.37 298.38C176.37 293.11 172.1 288.84 166.83 288.84ZM396.65 684.48C392.28 684.48 388.74 688.02 388.74 692.38C388.74 696.75 392.28 700.28 396.65 700.28C401.01 700.28 404.55 696.75 404.55 692.38C404.55 688.02 401.01 684.48 396.65 684.48ZM429.47 684.44C425.1 684.44 421.55 687.98 421.55 692.36C421.55 696.74 425.1 700.28 429.47 700.28C433.85 700.28 437.4 696.74 437.4 692.36C437.4 687.98 433.85 684.44 429.47 684.44ZM462.22 684.9C457.97 684.9 454.52 688.34 454.52 692.59C454.52 696.85 457.97 700.29 462.22 700.29C466.47 700.29 469.92 696.85 469.92 692.59C469.92 688.34 466.47 684.9 462.22 684.9ZM593.9 159.29C589.51 159.29 585.95 162.85 585.95 167.24C585.95 171.63 589.51 175.18 593.9 175.18C598.29 175.18 601.85 171.63 601.85 167.24C601.85 162.85 598.29 159.29 593.9 159.29ZM101.1 388.75C96.69 388.75 93.11 392.33 93.11 396.75C93.11 401.16 96.69 404.75 101.1 404.75C105.52 404.75 109.1 401.16 109.1 396.75C109.1 392.33 105.52 388.75 101.1 388.75ZM101.05 323.68C96.82 323.68 93.39 327.12 93.39 331.35C93.39 335.58 96.82 339.02 101.05 339.02C105.29 339.02 108.72 335.58 108.72 331.35C108.72 327.12 105.29 323.68 101.05 323.68ZM232.52 254.89C226.58 254.89 221.78 259.7 221.78 265.63C221.78 271.56 226.58 276.37 232.52 276.37C238.45 276.37 243.25 271.56 243.25 265.63C243.25 259.7 238.45 254.89 232.52 254.89ZM265.27 221.93C259.33 221.93 254.52 226.75 254.52 232.68C254.52 238.61 259.33 243.42 265.27 243.42C271.2 243.42 276.01 238.61 276.01 232.68C276.01 226.75 271.2 221.93 265.27 221.93ZM626.57 386.8C620.9 386.8 616.3 391.4 616.3 397.08C616.3 402.75 620.9 407.35 626.57 407.35C632.25 407.35 636.85 402.75 636.85 397.08C636.85 391.4 632.25 386.8 626.57 386.8ZM462.38 382.88C454.55 382.88 448.2 389.23 448.2 397.06C448.2 404.89 454.55 411.24 462.38 411.24C470.21 411.24 476.56 404.89 476.56 397.06C476.56 389.23 470.21 382.88 462.38 382.88ZM396.69 156.94C391.03 156.94 386.44 161.53 386.44 167.19C386.44 172.85 391.03 177.44 396.69 177.44C402.35 177.44 406.94 172.85 406.94 167.19C406.94 161.53 402.35 156.94 396.69 156.94ZM429.47 156.99C423.83 156.99 419.25 161.57 419.25 167.21C419.25 172.86 423.83 177.44 429.47 177.44C435.12 177.44 439.7 172.86 439.7 167.21C439.7 161.57 435.12 156.99 429.47 156.99ZM692.11 588.76C689.13 588.76 686.71 591.18 686.71 594.16C686.71 597.14 689.13 599.56 692.11 599.56C695.09 599.56 697.51 597.14 697.51 594.16C697.51 591.18 695.09 588.76 692.11 588.76ZM495.18 189.32C489.34 189.32 484.6 194.06 484.6 199.9C484.6 205.75 489.34 210.48 495.18 210.48C501.02 210.48 505.76 205.75 505.76 199.9C505.76 194.06 501.02 189.32 495.18 189.32ZM593.65 687.2C590.66 687.2 588.25 689.61 588.25 692.6C588.25 695.58 590.66 698 593.65 698C596.63 698 599.05 695.58 599.05 692.6C599.05 689.61 596.63 687.2 593.65 687.2ZM199.79 96.1C196.81 96.1 194.39 98.52 194.39 101.5C194.39 104.49 196.81 106.9 199.79 106.9C202.77 106.9 205.19 104.49 205.19 101.5C205.19 98.52 202.77 96.1 199.79 96.1ZM528.14 63.13C525.02 63.13 522.5 65.66 522.5 68.77C522.5 71.89 525.02 74.41 528.14 74.41C531.25 74.41 533.78 71.89 533.78 68.77C533.78 65.66 531.25 63.13 528.14 63.13ZM199.56 687.21C196.72 687.21 194.41 689.52 194.41 692.36C194.41 695.21 196.72 697.51 199.56 697.51C202.41 697.51 204.72 695.21 204.72 692.36C204.72 689.52 202.41 687.21 199.56 687.21ZM330.95 30.93C328.25 30.93 326.05 33.12 326.05 35.83C326.05 38.54 328.25 40.73 330.95 40.73C333.66 40.73 335.86 38.54 335.86 35.83C335.86 33.12 333.66 30.93 330.95 30.93ZM363.98 30.65C361.14 30.65 358.83 32.95 358.83 35.8C358.83 38.64 361.14 40.95 363.98 40.95C366.83 40.95 369.13 38.64 369.13 35.8C369.13 32.95 366.83 30.65 363.98 30.65ZM725.06 259.99C721.93 259.99 719.39 262.52 719.39 265.66C719.39 268.79 721.93 271.33 725.06 271.33C728.19 271.33 730.73 268.79 730.73 265.66C730.73 262.52 728.19 259.99 725.06 259.99ZM35.39 359.21C32.68 359.21 30.48 361.4 30.48 364.11C30.48 366.82 32.68 369.01 35.39 369.01C38.1 369.01 40.29 366.82 40.29 364.11C40.29 361.4 38.1 359.21 35.39 359.21ZM560.86 63.89C558.15 63.89 555.96 66.09 555.96 68.8C555.96 71.51 558.15 73.7 560.86 73.7C563.57 73.7 565.76 71.51 565.76 68.8C565.76 66.09 563.57 63.89 560.86 63.89ZM429.66 30.65C426.81 30.65 424.51 32.95 424.51 35.8C424.51 38.64 426.81 40.95 429.66 40.95C432.5 40.95 434.81 38.64 434.81 35.8C434.81 32.95 432.5 30.65 429.66 30.65ZM462.39 30.93C459.69 30.93 457.49 33.12 457.49 35.83C457.49 38.54 459.69 40.73 462.39 40.73C465.1 40.73 467.3 38.54 467.3 35.83C467.3 33.12 465.1 30.93 462.39 30.93ZM101.07 194.56C98.09 194.56 95.67 196.97 95.67 199.95C95.67 202.93 98.09 205.34 101.07 205.34C104.05 205.34 106.46 202.93 106.46 199.95C106.46 196.97 104.05 194.56 101.07 194.56ZM495.1 383.27C487.64 383.27 481.59 389.32 481.59 396.79C481.59 404.25 487.64 410.3 495.1 410.3C502.57 410.3 508.62 404.25 508.62 396.79C508.62 389.32 502.57 383.27 495.1 383.27ZM297.98 754.08C295.78 754.08 294 755.86 294 758.06C294 760.26 295.78 762.05 297.98 762.05C300.18 762.05 301.97 760.26 301.97 758.06C301.97 755.86 300.18 754.08 297.98 754.08ZM790.82 427.21C789.27 427.21 788.01 428.46 788.01 430.02C788.01 431.57 789.27 432.83 790.82 432.83C792.37 432.83 793.63 431.57 793.63 430.02C793.63 428.46 792.37 427.21 790.82 427.21ZM659.61 98.46C657.93 98.46 656.57 99.82 656.57 101.5C656.57 103.18 657.93 104.54 659.61 104.54C661.29 104.54 662.65 103.18 662.65 101.5C662.65 99.82 661.29 98.46 659.61 98.46ZM232.49 33.26C231.06 33.26 229.91 34.41 229.91 35.84C229.91 37.26 231.06 38.41 232.49 38.41C233.91 38.41 235.06 37.26 235.06 35.84C235.06 34.41 233.91 33.26 232.49 33.26ZM560.92 32.99C559.37 32.99 558.11 34.25 558.11 35.8C558.11 37.35 559.37 38.61 560.92 38.61C562.47 38.61 563.73 37.35 563.73 35.8C563.73 34.25 562.47 32.99 560.92 32.99ZM692.3 131.42C690.62 131.42 689.25 132.79 689.25 134.47C689.25 136.15 690.62 137.52 692.3 137.52C693.98 137.52 695.35 136.15 695.35 134.47C695.35 132.79 693.98 131.42 692.3 131.42ZM396.76 0C395.07 0 393.7 1.37001 393.7 3.06001C393.7 4.75001 395.07 6.13 396.76 6.13C398.46 6.13 399.83 4.75001 399.83 3.06001C399.83 1.37001 398.46 0 396.76 0ZM101.05 131.69C99.62 131.69 98.47 132.85 98.47 134.27C98.47 135.7 99.62 136.85 101.05 136.85C102.47 136.85 103.62 135.7 103.62 134.27C103.62 132.85 102.47 131.69 101.05 131.69ZM626.64 66.23C625.22 66.23 624.06 67.38 624.06 68.8C624.06 70.22 625.22 71.38 626.64 71.38C628.06 71.38 629.21 70.22 629.21 68.8C629.21 67.38 628.06 66.23 626.64 66.23ZM725.11 164.67C723.68 164.67 722.53 165.82 722.53 167.24C722.53 168.66 723.68 169.82 725.11 169.82C726.53 169.82 727.68 168.66 727.68 167.24C727.68 165.82 726.53 164.67 725.11 164.67ZM2.58 361.54C1.16 361.54 0 362.69 0 364.12C0 365.54 1.16 366.69 2.58 366.69C4.01 366.69 5.16 365.54 5.16 364.12C5.16 362.69 4.01 361.54 2.58 361.54Z" fill="black"/>
</svg>
