<svg width="1920" height="2004" viewBox="0 0 1920 2004" fill="none" xmlns="http://www.w3.org/2000/svg">
<g clip-path="url(#clip0_2450_2)">
<path opacity="0.37" d="M-5 0L35.9424 44.4888L76.8993 0L117.856 44.4888L158.813 0L199.756 44.4888L240.713 0L281.67 44.4888L322.627 0L363.584 44.4888L404.541 0L445.483 44.4888L486.44 0L527.397 44.4888L568.368 0L609.325 44.4888L650.282 0L691.239 44.4888L732.196 0L773.153 44.4888M773.153 44.4888L814.125 0L855.082 44.4888L896.039 0L936.996 44.4888L977.953 0L1018.92 44.4888L1059.88 0L1100.85 44.4888L1141.82 0L1182.8 44.4888M773.153 44.4888L732.204 0M773.153 44.4888L814.104 0L855.061 44.4888L896.018 0L936.96 44.4888L977.917 0L1018.87 44.4888L1059.83 0L1100.79 44.4888L1141.74 0L1182.69 44.4888L1223.64 0L1264.6 44.4888L1305.57 0L1346.53 44.4888L1387.49 0L1428.44 44.4888L1469.4 0L1510.36 44.4888L1551.33 0L1592.29 44.4888L1633.24 0L1674.2 44.4888L1715.16 0L1756.13 44.4888L1797.09 0L1838.06 44.4888L1879.03 0L1920 44.4888M-5 356.311L35.9424 400.8L76.8993 356.311L117.856 400.8L158.813 356.311L199.756 400.8L240.713 356.311L281.67 400.8L322.627 356.311L363.584 400.8L404.541 356.311L445.483 400.8L486.44 356.311L527.397 400.8L568.368 356.311L609.325 400.8L650.282 356.311L691.239 400.8L732.196 356.311L773.153 400.8M773.153 400.8L814.125 356.311L855.082 400.8L896.039 356.311L936.996 400.8L977.953 356.311L1018.92 400.8L1059.88 356.311L1100.85 400.8L1141.82 356.311L1182.8 400.8M773.153 400.8L732.204 356.311M773.153 400.8L814.104 356.311L855.061 400.8L896.018 356.311L936.96 400.8L977.917 356.311L1018.87 400.8L1059.83 356.311L1100.79 400.8L1141.74 356.311L1182.69 400.8L1223.64 356.311L1264.6 400.8L1305.57 356.311L1346.53 400.8L1387.49 356.311L1428.44 400.8L1469.4 356.311L1510.36 400.8L1551.33 356.311L1592.29 400.8L1633.24 356.311L1674.2 400.8L1715.16 356.311L1756.13 400.8L1797.09 356.311L1838.06 400.8L1879.03 356.311L1920 400.8M-5 1113.42L35.9424 1157.91L76.8993 1113.42L117.856 1157.91L158.813 1113.42L199.756 1157.91L240.713 1113.42L281.67 1157.91L322.627 1113.42L363.584 1157.91L404.541 1113.42L445.483 1157.91L486.44 1113.42L527.397 1157.91L568.368 1113.42L609.325 1157.91L650.282 1113.42L691.239 1157.91L732.196 1113.42L773.153 1157.91M773.153 1157.91L814.125 1113.42L855.082 1157.91L896.039 1113.42L936.996 1157.91L977.953 1113.42L1018.92 1157.91L1059.88 1113.42L1100.85 1157.91L1141.82 1113.42L1182.8 1157.91M773.153 1157.91L732.204 1113.42M773.153 1157.91L814.104 1113.42L855.061 1157.91L896.018 1113.42L936.96 1157.91L977.917 1113.42L1018.87 1157.91L1059.83 1113.42L1100.79 1157.91L1141.74 1113.42L1182.69 1157.91L1223.64 1113.42L1264.6 1157.91L1305.57 1113.42L1346.53 1157.91L1387.49 1113.42L1428.44 1157.91L1469.4 1113.42L1510.36 1157.91L1551.33 1113.42L1592.29 1157.91L1633.24 1113.42L1674.2 1157.91L1715.16 1113.42L1756.13 1157.91L1797.09 1113.42L1838.06 1157.91L1879.03 1113.42L1920 1157.91M-5 712.624L35.9424 757.113L76.8993 712.624L117.856 757.113L158.813 712.624L199.756 757.113L240.713 712.624L281.67 757.113L322.627 712.624L363.584 757.113L404.541 712.624L445.483 757.113L486.44 712.624L527.397 757.113L568.368 712.624L609.325 757.113L650.282 712.624L691.239 757.113L732.196 712.624L773.153 757.113M773.153 757.113L814.125 712.624L855.082 757.113L896.039 712.624L936.996 757.113L977.953 712.624L1018.92 757.113L1059.88 712.624L1100.85 757.113L1141.82 712.624L1182.8 757.113M773.153 757.113L732.204 712.624M773.153 757.113L814.104 712.624L855.061 757.113L896.018 712.624L936.96 757.113L977.917 712.624L1018.87 757.113L1059.83 712.624L1100.79 757.113L1141.74 712.624L1182.69 757.113L1223.64 712.624L1264.6 757.113L1305.57 712.624L1346.53 757.113L1387.49 712.624L1428.44 757.113L1469.4 712.624L1510.36 757.113L1551.33 712.624L1592.29 757.113L1633.24 712.624L1674.2 757.113L1715.16 712.624L1756.13 757.113L1797.09 712.624L1838.06 757.113L1879.03 712.624L1920 757.113M-5 1469.53L35.9424 1514.22L76.8993 1469.53L117.856 1514.22L158.813 1469.53L199.756 1514.22L240.713 1469.53L281.67 1514.22L322.627 1469.53L363.584 1514.22L404.541 1469.53L445.483 1514.22L486.44 1469.53L527.397 1514.22L568.368 1469.53L609.325 1514.22L650.282 1469.53L691.239 1514.22L732.196 1469.53L773.153 1514.22M773.153 1514.22L814.125 1469.53L855.082 1514.22L896.039 1469.53L936.996 1514.22L977.953 1469.53L1018.92 1514.22L1059.88 1469.53L1100.85 1514.22L1141.82 1469.53L1182.8 1514.22M773.153 1514.22L732.204 1469.53M773.153 1514.22L814.104 1469.53L855.061 1514.22L896.018 1469.53L936.96 1514.22L977.917 1469.53L1018.87 1514.22L1059.83 1469.53L1100.79 1514.22L1141.74 1469.53L1182.69 1514.22L1223.64 1469.53L1264.6 1514.22L1305.57 1469.53L1346.53 1514.22L1387.49 1469.53L1428.44 1514.22L1469.4 1469.53L1510.36 1514.22L1551.33 1469.53L1592.29 1514.22L1633.24 1469.53L1674.2 1514.22L1715.16 1469.53L1756.13 1514.22L1797.09 1469.53L1838.06 1514.22L1879.03 1469.53L1920 1514.22M-5 178.156L35.9424 222.645L76.8993 178.156L117.856 222.645L158.813 178.156L199.756 222.645L240.713 178.156L281.67 222.645L322.627 178.156L363.584 222.645L404.541 178.156L445.483 222.645L486.44 178.156L527.397 222.645L568.368 178.156L609.325 222.645L650.282 178.156L691.239 222.645L732.196 178.156L773.153 222.645M773.153 222.645L814.125 178.156L855.082 222.645L896.039 178.156L936.996 222.645L977.953 178.156L1018.92 222.645L1059.88 178.156L1100.85 222.645L1141.82 178.156L1182.8 222.645M773.153 222.645L732.204 178.156M773.153 222.645L814.104 178.156L855.061 222.645L896.018 178.156L936.96 222.645L977.917 178.156L1018.87 222.645L1059.83 178.156L1100.79 222.645L1141.74 178.156L1182.69 222.645L1223.64 178.156L1264.6 222.645L1305.57 178.156L1346.53 222.645L1387.49 178.156L1428.44 222.645L1469.4 178.156L1510.36 222.645L1551.33 178.156L1592.29 222.645L1633.24 178.156L1674.2 222.645L1715.16 178.156L1756.13 222.645L1797.09 178.156L1838.06 222.645L1879.03 178.156L1920 222.645M-5 534.468L35.9424 578.957L76.8993 534.468L117.856 578.957L158.813 534.468L199.756 578.957L240.713 534.468L281.67 578.957L322.627 534.468L363.584 578.957L404.541 534.468L445.483 578.957L486.44 534.468L527.397 578.957L568.368 534.468L609.325 578.957L650.282 534.468L691.239 578.957L732.196 534.468L773.153 578.957M773.153 578.957L814.125 534.468L855.082 578.957L896.039 534.468L936.996 578.957L977.953 534.468L1018.92 578.957L1059.88 534.468L1100.85 578.957L1141.82 534.468L1182.8 578.957M773.153 578.957L732.204 534.468M773.153 578.957L814.104 534.468L855.061 578.957L896.018 534.468L936.96 578.957L977.917 534.468L1018.87 578.957L1059.83 534.468L1100.79 578.957L1141.74 534.468L1182.69 578.957L1223.64 534.468L1264.6 578.957L1305.57 534.468L1346.53 578.957L1387.49 534.468L1428.44 578.957L1469.4 534.468L1510.36 578.957L1551.33 534.468L1592.29 578.957L1633.24 534.468L1674.2 578.957L1715.16 534.468L1756.13 578.957L1797.09 534.468L1838.06 578.957L1879.03 534.468L1920 578.957M-5 1291.38L35.9424 1336.07L76.8993 1291.38L117.856 1336.07L158.813 1291.38L199.756 1336.07L240.713 1291.38L281.67 1336.07L322.627 1291.38L363.584 1336.07L404.541 1291.38L445.483 1336.07L486.44 1291.38L527.397 1336.07L568.368 1291.38L609.325 1336.07L650.282 1291.38L691.239 1336.07L732.196 1291.38L773.153 1336.07M773.153 1336.07L814.125 1291.38L855.082 1336.07L896.039 1291.38L936.996 1336.07L977.953 1291.38L1018.92 1336.07L1059.88 1291.38L1100.85 1336.07L1141.82 1291.38L1182.8 1336.07M773.153 1336.07L732.204 1291.38M773.153 1336.07L814.104 1291.38L855.061 1336.07L896.018 1291.38L936.96 1336.07L977.917 1291.38L1018.87 1336.07L1059.83 1291.38L1100.79 1336.07L1141.74 1291.38L1182.69 1336.07L1223.64 1291.38L1264.6 1336.07L1305.57 1291.38L1346.53 1336.07L1387.49 1291.38L1428.44 1336.07L1469.4 1291.38L1510.36 1336.07L1551.33 1291.38L1592.29 1336.07L1633.24 1291.38L1674.2 1336.07L1715.16 1291.38L1756.13 1336.07L1797.09 1291.38L1838.06 1336.07L1879.03 1291.38L1920 1336.07M-5 890.579L35.9424 935.268L76.8993 890.579L117.856 935.268L158.813 890.579L199.756 935.268L240.713 890.579L281.67 935.268L322.627 890.579L363.584 935.268L404.541 890.579L445.483 935.268L486.44 890.579L527.397 935.268L568.368 890.579L609.325 935.268L650.282 890.579L691.239 935.268L732.196 890.579L773.153 935.268M773.153 935.268L814.125 890.579L855.082 935.268L896.039 890.579L936.996 935.268L977.953 890.579L1018.92 935.268L1059.88 890.579L1100.85 935.268L1141.82 890.579L1182.8 935.268M773.153 935.268L732.204 890.579M773.153 935.268L814.104 890.579L855.061 935.268L896.018 890.579L936.96 935.268L977.917 890.579L1018.87 935.268L1059.83 890.579L1100.79 935.268L1141.74 890.579L1182.69 935.268L1223.64 890.579L1264.6 935.268L1305.57 890.579L1346.53 935.268L1387.49 890.579L1428.44 935.268L1469.4 890.579L1510.36 935.268L1551.33 890.579L1592.29 935.268L1633.24 890.579L1674.2 935.268L1715.16 890.579L1756.13 935.268L1797.09 890.579L1838.06 935.268L1879.03 890.579L1920 935.268M-5 1647.69L35.9424 1692.18L76.8993 1647.69L117.856 1692.18L158.813 1647.69L199.756 1692.18L240.713 1647.69L281.67 1692.18L322.627 1647.69L363.584 1692.18L404.541 1647.69L445.483 1692.18L486.44 1647.69L527.397 1692.18L568.368 1647.69L609.325 1692.18L650.282 1647.69L691.239 1692.18L732.196 1647.69L773.153 1692.18M773.153 1692.18L814.125 1647.69L855.082 1692.18L896.039 1647.69L936.996 1692.18L977.953 1647.69L1018.92 1692.18L1059.88 1647.69L1100.85 1692.18L1141.82 1647.69L1182.8 1692.18M773.153 1692.18L732.204 1647.69M773.153 1692.18L814.104 1647.69L855.061 1692.18L896.018 1647.69L936.96 1692.18L977.917 1647.69L1018.87 1692.18L1059.83 1647.69L1100.79 1692.18L1141.74 1647.69L1182.69 1692.18L1223.64 1647.69L1264.6 1692.18L1305.57 1647.69L1346.53 1692.18L1387.49 1647.69L1428.44 1692.18L1469.4 1647.69L1510.36 1692.18L1551.33 1647.69L1592.29 1692.18L1633.24 1647.69L1674.2 1692.18L1715.16 1647.69L1756.13 1692.18L1797.09 1647.69L1838.06 1692.18L1879.03 1647.69L1920 1692.18M-5 1825.84L35.9424 1870.33L76.8993 1825.84L117.856 1870.33L158.813 1825.84L199.756 1870.33L240.713 1825.84L281.67 1870.33L322.627 1825.84L363.584 1870.33L404.541 1825.84L445.483 1870.33L486.44 1825.84L527.397 1870.33L568.368 1825.84L609.325 1870.33L650.282 1825.84L691.239 1870.33L732.196 1825.84L773.153 1870.33M773.153 1870.33L814.125 1825.84L855.082 1870.33L896.039 1825.84L936.996 1870.33L977.953 1825.84L1018.92 1870.33L1059.88 1825.84L1100.85 1870.33L1141.82 1825.84L1182.8 1870.33M773.153 1870.33L732.204 1825.84M773.153 1870.33L814.104 1825.84L855.061 1870.33L896.018 1825.84L936.96 1870.33L977.917 1825.84L1018.87 1870.33L1059.83 1825.84L1100.79 1870.33L1141.74 1825.84L1182.69 1870.33L1223.64 1825.84L1264.6 1870.33L1305.57 1825.84L1346.53 1870.33L1387.49 1825.84L1428.44 1870.33L1469.4 1825.84L1510.36 1870.33L1551.33 1825.84L1592.29 1870.33L1633.24 1825.84L1674.2 1870.33L1715.16 1825.84L1756.13 1870.33L1797.09 1825.84L1838.06 1870.33L1879.03 1825.84L1920 1870.33M-5 88.9784L35.9424 133.668L76.8993 88.9784L117.856 133.668L158.813 88.9784L199.756 133.668L240.713 88.9784L281.67 133.668L322.627 88.9784L363.584 133.668L404.541 88.9784L445.483 133.668L486.44 88.9784L527.397 133.668L568.368 88.9784L609.325 133.668L650.282 88.9784L691.239 133.668L732.196 88.9784L773.153 133.668M773.153 133.668L814.125 88.9784L855.082 133.668L896.039 88.9784L936.996 133.668L977.953 88.9784L1018.92 133.668L1059.88 88.9784L1100.85 133.668L1141.82 88.9784L1182.8 133.668M773.153 133.668L732.204 88.9784M773.153 133.668L814.104 88.9784L855.061 133.668L896.018 88.9784L936.96 133.668L977.917 88.9784L1018.87 133.668L1059.83 88.9784L1100.79 133.668L1141.74 88.9784L1182.69 133.668L1223.64 88.9784L1264.6 133.668L1305.57 88.9784L1346.53 133.668L1387.49 88.9784L1428.44 133.668L1469.4 88.9784L1510.36 133.668L1551.33 88.9784L1592.29 133.668L1633.24 88.9784L1674.2 133.668L1715.16 88.9784L1756.13 133.668L1797.09 88.9784L1838.06 133.668L1879.03 88.9784L1920 133.668M-5 445.289L35.9424 489.778L76.8993 445.289L117.856 489.778L158.813 445.289L199.756 489.778L240.713 445.289L281.67 489.778L322.627 445.289L363.584 489.778L404.541 445.289L445.483 489.778L486.44 445.289L527.397 489.778L568.368 445.289L609.325 489.778L650.282 445.289L691.239 489.778L732.196 445.289L773.153 489.778M773.153 489.778L814.125 445.289L855.082 489.778L896.039 445.289L936.996 489.778L977.953 445.289L1018.92 489.778L1059.88 445.289L1100.85 489.778L1141.82 445.289L1182.8 489.778M773.153 489.778L732.204 445.289M773.153 489.778L814.104 445.289L855.061 489.778L896.018 445.289L936.96 489.778L977.917 445.289L1018.87 489.778L1059.83 445.289L1100.79 489.778L1141.74 445.289L1182.69 489.778L1223.64 445.289L1264.6 489.778L1305.57 445.289L1346.53 489.778L1387.49 445.289L1428.44 489.778L1469.4 445.289L1510.36 489.778L1551.33 445.289L1592.29 489.778L1633.24 445.289L1674.2 489.778L1715.16 445.289L1756.13 489.778L1797.09 445.289L1838.06 489.778L1879.03 445.289L1920 489.778M-5 1202.4L35.9424 1246.89L76.8993 1202.4L117.856 1246.89L158.813 1202.4L199.756 1246.89L240.713 1202.4L281.67 1246.89L322.627 1202.4L363.584 1246.89L404.541 1202.4L445.483 1246.89L486.44 1202.4L527.397 1246.89L568.368 1202.4L609.325 1246.89L650.282 1202.4L691.239 1246.89L732.196 1202.4L773.153 1246.89M773.153 1246.89L814.125 1202.4L855.082 1246.89L896.039 1202.4L936.996 1246.89L977.953 1202.4L1018.92 1246.89L1059.88 1202.4L1100.85 1246.89L1141.82 1202.4L1182.8 1246.89M773.153 1246.89L732.204 1202.4M773.153 1246.89L814.104 1202.4L855.061 1246.89L896.018 1202.4L936.96 1246.89L977.917 1202.4L1018.87 1246.89L1059.83 1202.4L1100.79 1246.89L1141.74 1202.4L1182.69 1246.89L1223.64 1202.4L1264.6 1246.89L1305.57 1202.4L1346.53 1246.89L1387.49 1202.4L1428.44 1246.89L1469.4 1202.4L1510.36 1246.89L1551.33 1202.4L1592.29 1246.89L1633.24 1202.4L1674.2 1246.89L1715.16 1202.4L1756.13 1246.89L1797.09 1202.4L1838.06 1246.89L1879.03 1202.4L1920 1246.89M-5 801.602L35.9424 846.09L76.8993 801.602L117.856 846.09L158.813 801.602L199.756 846.09L240.713 801.602L281.67 846.09L322.627 801.602L363.584 846.09L404.541 801.602L445.483 846.09L486.44 801.602L527.397 846.09L568.368 801.602L609.325 846.09L650.282 801.602L691.239 846.09L732.196 801.602L773.153 846.09M773.153 846.09L814.125 801.602L855.082 846.09L896.039 801.602L936.996 846.09L977.953 801.602L1018.92 846.09L1059.88 801.602L1100.85 846.09L1141.82 801.602L1182.8 846.09M773.153 846.09L732.204 801.602M773.153 846.09L814.104 801.602L855.061 846.09L896.018 801.602L936.96 846.09L977.917 801.602L1018.87 846.09L1059.83 801.602L1100.79 846.09L1141.74 801.602L1182.69 846.09L1223.64 801.602L1264.6 846.09L1305.57 801.602L1346.53 846.09L1387.49 801.602L1428.44 846.09L1469.4 801.602L1510.36 846.09L1551.33 801.602L1592.29 846.09L1633.24 801.602L1674.2 846.09L1715.16 801.602L1756.13 846.09L1797.09 801.602L1838.06 846.09L1879.03 801.602L1920 846.09M-5 1558.71L35.9424 1603.2L76.8993 1558.71L117.856 1603.2L158.813 1558.71L199.756 1603.2L240.713 1558.71L281.67 1603.2L322.627 1558.71L363.584 1603.2L404.541 1558.71L445.483 1603.2L486.44 1558.71L527.397 1603.2L568.368 1558.71L609.325 1603.2L650.282 1558.71L691.239 1603.2L732.196 1558.71L773.153 1603.2M773.153 1603.2L814.125 1558.71L855.082 1603.2L896.039 1558.71L936.996 1603.2L977.953 1558.71L1018.92 1603.2L1059.88 1558.71L1100.85 1603.2L1141.82 1558.71L1182.8 1603.2M773.153 1603.2L732.204 1558.71M773.153 1603.2L814.104 1558.71L855.061 1603.2L896.018 1558.71L936.96 1603.2L977.917 1558.71L1018.87 1603.2L1059.83 1558.71L1100.79 1603.2L1141.74 1558.71L1182.69 1603.2L1223.64 1558.71L1264.6 1603.2L1305.57 1558.71L1346.53 1603.2L1387.49 1558.71L1428.44 1603.2L1469.4 1558.71L1510.36 1603.2L1551.33 1558.71L1592.29 1603.2L1633.24 1558.71L1674.2 1603.2L1715.16 1558.71L1756.13 1603.2L1797.09 1558.71L1838.06 1603.2L1879.03 1558.71L1920 1603.2M-5 267.134L35.9424 311.823L76.8993 267.134L117.856 311.823L158.813 267.134L199.756 311.823L240.713 267.134L281.67 311.823L322.627 267.134L363.584 311.823L404.541 267.134L445.483 311.823L486.44 267.134L527.397 311.823L568.368 267.134L609.325 311.823L650.282 267.134L691.239 311.823L732.196 267.134L773.153 311.823M773.153 311.823L814.125 267.134L855.082 311.823L896.039 267.134L936.996 311.823L977.953 267.134L1018.92 311.823L1059.88 267.134L1100.85 311.823L1141.82 267.134L1182.8 311.823M773.153 311.823L732.204 267.134M773.153 311.823L814.104 267.134L855.061 311.823L896.018 267.134L936.96 311.823L977.917 267.134L1018.87 311.823L1059.83 267.134L1100.79 311.823L1141.74 267.134L1182.69 311.823L1223.64 267.134L1264.6 311.823L1305.57 267.134L1346.53 311.823L1387.49 267.134L1428.44 311.823L1469.4 267.134L1510.36 311.823L1551.33 267.134L1592.29 311.823L1633.24 267.134L1674.2 311.823L1715.16 267.134L1756.13 311.823L1797.09 267.134L1838.06 311.823L1879.03 267.134L1920 311.823M-5 623.446L35.9424 667.935L76.8993 623.446L117.856 667.935L158.813 623.446L199.756 667.935L240.713 623.446L281.67 667.935L322.627 623.446L363.584 667.935L404.541 623.446L445.483 667.935L486.44 623.446L527.397 667.935L568.368 623.446L609.325 667.935L650.282 623.446L691.239 667.935L732.196 623.446L773.153 667.935M773.153 667.935L814.125 623.446L855.082 667.935L896.039 623.446L936.996 667.935L977.953 623.446L1018.92 667.935L1059.88 623.446L1100.85 667.935L1141.82 623.446L1182.8 667.935M773.153 667.935L732.204 623.446M773.153 667.935L814.104 623.446L855.061 667.935L896.018 623.446L936.96 667.935L977.917 623.446L1018.87 667.935L1059.83 623.446L1100.79 667.935L1141.74 623.446L1182.69 667.935L1223.64 623.446L1264.6 667.935L1305.57 623.446L1346.53 667.935L1387.49 623.446L1428.44 667.935L1469.4 623.446L1510.36 667.935L1551.33 623.446L1592.29 667.935L1633.24 623.446L1674.2 667.935L1715.16 623.446L1756.13 667.935L1797.09 623.446L1838.06 667.935L1879.03 623.446L1920 667.935M-5 1380.56L35.9424 1425.04L76.8993 1380.56L117.856 1425.04L158.813 1380.56L199.756 1425.04L240.713 1380.56L281.67 1425.04L322.627 1380.56L363.584 1425.04L404.541 1380.56L445.483 1425.04L486.44 1380.56L527.397 1425.04L568.368 1380.56L609.325 1425.04L650.282 1380.56L691.239 1425.04L732.196 1380.56L773.153 1425.04M773.153 1425.04L814.125 1380.56L855.082 1425.04L896.039 1380.56L936.996 1425.04L977.953 1380.56L1018.92 1425.04L1059.88 1380.56L1100.85 1425.04L1141.82 1380.56L1182.8 1425.04M773.153 1425.04L732.204 1380.56M773.153 1425.04L814.104 1380.56L855.061 1425.04L896.018 1380.56L936.96 1425.04L977.917 1380.56L1018.87 1425.04L1059.83 1380.56L1100.79 1425.04L1141.74 1380.56L1182.69 1425.04L1223.64 1380.56L1264.6 1425.04L1305.57 1380.56L1346.53 1425.04L1387.49 1380.56L1428.44 1425.04L1469.4 1380.56L1510.36 1425.04L1551.33 1380.56L1592.29 1425.04L1633.24 1380.56L1674.2 1425.04L1715.16 1380.56L1756.13 1425.04L1797.09 1380.56L1838.06 1425.04L1879.03 1380.56L1920 1425.04M-5 979.757L35.9424 1024.25L76.8993 979.757L117.856 1024.25L158.813 979.757L199.756 1024.25L240.713 979.757L281.67 1024.25L322.627 979.757L363.584 1024.25L404.541 979.757L445.483 1024.25L486.44 979.757L527.397 1024.25L568.368 979.757L609.325 1024.25L650.282 979.757L691.239 1024.25L732.196 979.757L773.153 1024.25M773.153 1024.25L814.125 979.757L855.082 1024.25L896.039 979.757L936.996 1024.25L977.953 979.757L1018.92 1024.25L1059.88 979.757L1100.85 1024.25L1141.82 979.757L1182.8 1024.25M773.153 1024.25L732.204 979.757M773.153 1024.25L814.104 979.757L855.061 1024.25L896.018 979.757L936.96 1024.25L977.917 979.757L1018.87 1024.25L1059.83 979.757L1100.79 1024.25L1141.74 979.757L1182.69 1024.25L1223.64 979.757L1264.6 1024.25L1305.57 979.757L1346.53 1024.25L1387.49 979.757L1428.44 1024.25L1469.4 979.757L1510.36 1024.25L1551.33 979.757L1592.29 1024.25L1633.24 979.757L1674.2 1024.25L1715.16 979.757L1756.13 1024.25L1797.09 979.757L1838.06 1024.25L1879.03 979.757L1920 1024.25M-5 1736.87L35.9424 1781.36L76.8993 1736.87L117.856 1781.36L158.813 1736.87L199.756 1781.36L240.713 1736.87L281.67 1781.36L322.627 1736.87L363.584 1781.36L404.541 1736.87L445.483 1781.36L486.44 1736.87L527.397 1781.36L568.368 1736.87L609.325 1781.36L650.282 1736.87L691.239 1781.36L732.196 1736.87L773.153 1781.36M773.153 1781.36L814.125 1736.87L855.082 1781.36L896.039 1736.87L936.996 1781.36L977.953 1736.87L1018.92 1781.36L1059.88 1736.87L1100.85 1781.36L1141.82 1736.87L1182.8 1781.36M773.153 1781.36L732.204 1736.87M773.153 1781.36L814.104 1736.87L855.061 1781.36L896.018 1736.87L936.96 1781.36L977.917 1736.87L1018.87 1781.36L1059.83 1736.87L1100.79 1781.36L1141.74 1736.87L1182.69 1781.36L1223.64 1736.87L1264.6 1781.36L1305.57 1736.87L1346.53 1781.36L1387.49 1736.87L1428.44 1781.36L1469.4 1736.87L1510.36 1781.36L1551.33 1736.87L1592.29 1781.36L1633.24 1736.87L1674.2 1781.36L1715.16 1736.87L1756.13 1781.36L1797.09 1736.87L1838.06 1781.36L1879.03 1736.87L1920 1781.36M-5 1915.02L35.9424 1959.51L76.8993 1915.02L117.856 1959.51L158.813 1915.02L199.756 1959.51L240.713 1915.02L281.67 1959.51L322.627 1915.02L363.584 1959.51L404.541 1915.02L445.483 1959.51L486.44 1915.02L527.397 1959.51L568.368 1915.02L609.325 1959.51L650.282 1915.02L691.239 1959.51L732.196 1915.02L773.153 1959.51M773.153 1959.51L814.125 1915.02L855.082 1959.51L896.039 1915.02L936.996 1959.51L977.953 1915.02L1018.92 1959.51L1059.88 1915.02L1100.85 1959.51L1141.82 1915.02L1182.8 1959.51M773.153 1959.51L732.204 1915.02M773.153 1959.51L814.104 1915.02L855.061 1959.51L896.018 1915.02L936.96 1959.51L977.917 1915.02L1018.87 1959.51L1059.83 1915.02L1100.79 1959.51L1141.74 1915.02L1182.69 1959.51L1223.64 1915.02L1264.6 1959.51L1305.57 1915.02L1346.53 1959.51L1387.49 1915.02L1428.44 1959.51L1469.4 1915.02L1510.36 1959.51L1551.33 1915.02L1592.29 1959.51L1633.24 1915.02L1674.2 1959.51L1715.16 1915.02L1756.13 1959.51L1797.09 1915.02L1838.06 1959.51L1879.03 1915.02L1920 1959.51M-5 44.4896L35.9424 88.9784L76.8993 44.4896L117.856 88.9784L158.813 44.4896L199.756 88.9784L240.713 44.4896L281.67 88.9784L322.627 44.4896L363.584 88.9784L404.541 44.4896L445.483 88.9784L486.44 44.4896L527.397 88.9784L568.368 44.4896L609.325 88.9784L650.282 44.4896L691.239 88.9784L732.196 44.4896L773.153 88.9784M773.153 88.9784L814.125 44.4896L855.082 88.9784L896.039 44.4896L936.996 88.9784L977.953 44.4896L1018.92 88.9784L1059.88 44.4896L1100.85 88.9784L1141.82 44.4896L1182.8 88.9784M773.153 88.9784L732.204 44.4896M773.153 88.9784L814.104 44.4896L855.061 88.9784L896.018 44.4896L936.96 88.9784L977.917 44.4896L1018.87 88.9784L1059.83 44.4896L1100.79 88.9784L1141.74 44.4896L1182.69 88.9784L1223.64 44.4896L1264.6 88.9784L1305.57 44.4896L1346.53 88.9784L1387.49 44.4896L1428.44 88.9784L1469.4 44.4896L1510.36 88.9784L1551.33 44.4896L1592.29 88.9784L1633.24 44.4896L1674.2 88.9784L1715.16 44.4896L1756.13 88.9784L1797.09 44.4896L1838.06 88.9784L1879.03 44.4896L1920 88.9784M-5 400.8L35.9424 445.289L76.8993 400.8L117.856 445.289L158.813 400.8L199.756 445.289L240.713 400.8L281.67 445.289L322.627 400.8L363.584 445.289L404.541 400.8L445.483 445.289L486.44 400.8L527.397 445.289L568.368 400.8L609.325 445.289L650.282 400.8L691.239 445.289L732.196 400.8L773.153 445.289M773.153 445.289L814.125 400.8L855.082 445.289L896.039 400.8L936.996 445.289L977.953 400.8L1018.92 445.289L1059.88 400.8L1100.85 445.289L1141.82 400.8L1182.8 445.289M773.153 445.289L732.204 400.8M773.153 445.289L814.104 400.8L855.061 445.289L896.018 400.8L936.96 445.289L977.917 400.8L1018.87 445.289L1059.83 400.8L1100.79 445.289L1141.74 400.8L1182.69 445.289L1223.64 400.8L1264.6 445.289L1305.57 400.8L1346.53 445.289L1387.49 400.8L1428.44 445.289L1469.4 400.8L1510.36 445.289L1551.33 400.8L1592.29 445.289L1633.24 400.8L1674.2 445.289L1715.16 400.8L1756.13 445.289L1797.09 400.8L1838.06 445.289L1879.03 400.8L1920 445.289M-5 1157.91L35.9424 1202.4L76.8993 1157.91L117.856 1202.4L158.813 1157.91L199.756 1202.4L240.713 1157.91L281.67 1202.4L322.627 1157.91L363.584 1202.4L404.541 1157.91L445.483 1202.4L486.44 1157.91L527.397 1202.4L568.368 1157.91L609.325 1202.4L650.282 1157.91L691.239 1202.4L732.196 1157.91L773.153 1202.4M773.153 1202.4L814.125 1157.91L855.082 1202.4L896.039 1157.91L936.996 1202.4L977.953 1157.91L1018.92 1202.4L1059.88 1157.91L1100.85 1202.4L1141.82 1157.91L1182.8 1202.4M773.153 1202.4L732.204 1157.91M773.153 1202.4L814.104 1157.91L855.061 1202.4L896.018 1157.91L936.96 1202.4L977.917 1157.91L1018.87 1202.4L1059.83 1157.91L1100.79 1202.4L1141.74 1157.91L1182.69 1202.4L1223.64 1157.91L1264.6 1202.4L1305.57 1157.91L1346.53 1202.4L1387.49 1157.91L1428.44 1202.4L1469.4 1157.91L1510.36 1202.4L1551.33 1157.91L1592.29 1202.4L1633.24 1157.91L1674.2 1202.4L1715.16 1157.91L1756.13 1202.4L1797.09 1157.91L1838.06 1202.4L1879.03 1157.91L1920 1202.4M-5 757.113L35.9424 801.602L76.8993 757.113L117.856 801.602L158.813 757.113L199.756 801.602L240.713 757.113L281.67 801.602L322.627 757.113L363.584 801.602L404.541 757.113L445.483 801.602L486.44 757.113L527.397 801.602L568.368 757.113L609.325 801.602L650.282 757.113L691.239 801.602L732.196 757.113L773.153 801.602M773.153 801.602L814.125 757.113L855.082 801.602L896.039 757.113L936.996 801.602L977.953 757.113L1018.92 801.602L1059.88 757.113L1100.85 801.602L1141.82 757.113L1182.8 801.602M773.153 801.602L732.204 757.113M773.153 801.602L814.104 757.113L855.061 801.602L896.018 757.113L936.96 801.602L977.917 757.113L1018.87 801.602L1059.83 757.113L1100.79 801.602L1141.74 757.113L1182.69 801.602L1223.64 757.113L1264.6 801.602L1305.57 757.113L1346.53 801.602L1387.49 757.113L1428.44 801.602L1469.4 757.113L1510.36 801.602L1551.33 757.113L1592.29 801.602L1633.24 757.113L1674.2 801.602L1715.16 757.113L1756.13 801.602L1797.09 757.113L1838.06 801.602L1879.03 757.113L1920 801.602M-5 1514.22L35.9424 1558.71L76.8993 1514.22L117.856 1558.71L158.813 1514.22L199.756 1558.71L240.713 1514.22L281.67 1558.71L322.627 1514.22L363.584 1558.71L404.541 1514.22L445.483 1558.71L486.44 1514.22L527.397 1558.71L568.368 1514.22L609.325 1558.71L650.282 1514.22L691.239 1558.71L732.196 1514.22L773.153 1558.71M773.153 1558.71L814.125 1514.22L855.082 1558.71L896.039 1514.22L936.996 1558.71L977.953 1514.22L1018.92 1558.71L1059.88 1514.22L1100.85 1558.71L1141.82 1514.22L1182.8 1558.71M773.153 1558.71L732.204 1514.22M773.153 1558.71L814.104 1514.22L855.061 1558.71L896.018 1514.22L936.96 1558.71L977.917 1514.22L1018.87 1558.71L1059.83 1514.22L1100.79 1558.71L1141.74 1514.22L1182.69 1558.71L1223.64 1514.22L1264.6 1558.71L1305.57 1514.22L1346.53 1558.71L1387.49 1514.22L1428.44 1558.71L1469.4 1514.22L1510.36 1558.71L1551.33 1514.22L1592.29 1558.71L1633.24 1514.22L1674.2 1558.71L1715.16 1514.22L1756.13 1558.71L1797.09 1514.22L1838.06 1558.71L1879.03 1514.22L1920 1558.71M-5 222.645L35.9424 267.134L76.8993 222.645L117.856 267.134L158.813 222.645L199.756 267.134L240.713 222.645L281.67 267.134L322.627 222.645L363.584 267.134L404.541 222.645L445.483 267.134L486.44 222.645L527.397 267.134L568.368 222.645L609.325 267.134L650.282 222.645L691.239 267.134L732.196 222.645L773.153 267.134M773.153 267.134L814.125 222.645L855.082 267.134L896.039 222.645L936.996 267.134L977.953 222.645L1018.92 267.134L1059.88 222.645L1100.85 267.134L1141.82 222.645L1182.8 267.134M773.153 267.134L732.204 222.645M773.153 267.134L814.104 222.645L855.061 267.134L896.018 222.645L936.96 267.134L977.917 222.645L1018.87 267.134L1059.83 222.645L1100.79 267.134L1141.74 222.645L1182.69 267.134L1223.64 222.645L1264.6 267.134L1305.57 222.645L1346.53 267.134L1387.49 222.645L1428.44 267.134L1469.4 222.645L1510.36 267.134L1551.33 222.645L1592.29 267.134L1633.24 222.645L1674.2 267.134L1715.16 222.645L1756.13 267.134L1797.09 222.645L1838.06 267.134L1879.03 222.645L1920 267.134M-5 578.957L35.9424 623.446L76.8993 578.957L117.856 623.446L158.813 578.957L199.756 623.446L240.713 578.957L281.67 623.446L322.627 578.957L363.584 623.446L404.541 578.957L445.483 623.446L486.44 578.957L527.397 623.446L568.368 578.957L609.325 623.446L650.282 578.957L691.239 623.446L732.196 578.957L773.153 623.446M773.153 623.446L814.125 578.957L855.082 623.446L896.039 578.957L936.996 623.446L977.953 578.957L1018.92 623.446L1059.88 578.957L1100.85 623.446L1141.82 578.957L1182.8 623.446M773.153 623.446L732.204 578.957M773.153 623.446L814.104 578.957L855.061 623.446L896.018 578.957L936.96 623.446L977.917 578.957L1018.87 623.446L1059.83 578.957L1100.79 623.446L1141.74 578.957L1182.69 623.446L1223.64 578.957L1264.6 623.446L1305.57 578.957L1346.53 623.446L1387.49 578.957L1428.44 623.446L1469.4 578.957L1510.36 623.446L1551.33 578.957L1592.29 623.446L1633.24 578.957L1674.2 623.446L1715.16 578.957L1756.13 623.446L1797.09 578.957L1838.06 623.446L1879.03 578.957L1920 623.446M-5 1336.07L35.9424 1380.56L76.8993 1336.07L117.856 1380.56L158.813 1336.07L199.756 1380.56L240.713 1336.07L281.67 1380.56L322.627 1336.07L363.584 1380.56L404.541 1336.07L445.483 1380.56L486.44 1336.07L527.397 1380.56L568.368 1336.07L609.325 1380.56L650.282 1336.07L691.239 1380.56L732.196 1336.07L773.153 1380.56M773.153 1380.56L814.125 1336.07L855.082 1380.56L896.039 1336.07L936.996 1380.56L977.953 1336.07L1018.92 1380.56L1059.88 1336.07L1100.85 1380.56L1141.82 1336.07L1182.8 1380.56M773.153 1380.56L732.204 1336.07M773.153 1380.56L814.104 1336.07L855.061 1380.56L896.018 1336.07L936.96 1380.56L977.917 1336.07L1018.87 1380.56L1059.83 1336.07L1100.79 1380.56L1141.74 1336.07L1182.69 1380.56L1223.64 1336.07L1264.6 1380.56L1305.57 1336.07L1346.53 1380.56L1387.49 1336.07L1428.44 1380.56L1469.4 1336.07L1510.36 1380.56L1551.33 1336.07L1592.29 1380.56L1633.24 1336.07L1674.2 1380.56L1715.16 1336.07L1756.13 1380.56L1797.09 1336.07L1838.06 1380.56L1879.03 1336.07L1920 1380.56M-5 935.267L35.9424 979.756L76.8993 935.267L117.856 979.756L158.813 935.267L199.756 979.756L240.713 935.267L281.67 979.756L322.627 935.267L363.584 979.756L404.541 935.267L445.483 979.756L486.44 935.267L527.397 979.756L568.368 935.267L609.325 979.756L650.282 935.267L691.239 979.756L732.196 935.267L773.153 979.756M773.153 979.756L814.125 935.267L855.082 979.756L896.039 935.267L936.996 979.756L977.953 935.267L1018.92 979.756L1059.88 935.267L1100.85 979.756L1141.82 935.267L1182.8 979.756M773.153 979.756L732.204 935.267M773.153 979.756L814.104 935.267L855.061 979.756L896.018 935.267L936.96 979.756L977.917 935.267L1018.87 979.756L1059.83 935.267L1100.79 979.756L1141.74 935.267L1182.69 979.756L1223.64 935.267L1264.6 979.756L1305.57 935.267L1346.53 979.756L1387.49 935.267L1428.44 979.756L1469.4 935.267L1510.36 979.756L1551.33 935.267L1592.29 979.756L1633.24 935.267L1674.2 979.756L1715.16 935.267L1756.13 979.756L1797.09 935.267L1838.06 979.756L1879.03 935.267L1920 979.756M-5 1692.18L35.9424 1736.87L76.8993 1692.18L117.856 1736.87L158.813 1692.18L199.756 1736.87L240.713 1692.18L281.67 1736.87L322.627 1692.18L363.584 1736.87L404.541 1692.18L445.483 1736.87L486.44 1692.18L527.397 1736.87L568.368 1692.18L609.325 1736.87L650.282 1692.18L691.239 1736.87L732.196 1692.18L773.153 1736.87M773.153 1736.87L814.125 1692.18L855.082 1736.87L896.039 1692.18L936.996 1736.87L977.953 1692.18L1018.92 1736.87L1059.88 1692.18L1100.85 1736.87L1141.82 1692.18L1182.8 1736.87M773.153 1736.87L732.204 1692.18M773.153 1736.87L814.104 1692.18L855.061 1736.87L896.018 1692.18L936.96 1736.87L977.917 1692.18L1018.87 1736.87L1059.83 1692.18L1100.79 1736.87L1141.74 1692.18L1182.69 1736.87L1223.64 1692.18L1264.6 1736.87L1305.57 1692.18L1346.53 1736.87L1387.49 1692.18L1428.44 1736.87L1469.4 1692.18L1510.36 1736.87L1551.33 1692.18L1592.29 1736.87L1633.24 1692.18L1674.2 1736.87L1715.16 1692.18L1756.13 1736.87L1797.09 1692.18L1838.06 1736.87L1879.03 1692.18L1920 1736.87M-5 1870.33L35.9424 1915.02L76.8993 1870.33L117.856 1915.02L158.813 1870.33L199.756 1915.02L240.713 1870.33L281.67 1915.02L322.627 1870.33L363.584 1915.02L404.541 1870.33L445.483 1915.02L486.44 1870.33L527.397 1915.02L568.368 1870.33L609.325 1915.02L650.282 1870.33L691.239 1915.02L732.196 1870.33L773.153 1915.02M773.153 1915.02L814.125 1870.33L855.082 1915.02L896.039 1870.33L936.996 1915.02L977.953 1870.33L1018.92 1915.02L1059.88 1870.33L1100.85 1915.02L1141.82 1870.33L1182.8 1915.02M773.153 1915.02L732.204 1870.33M773.153 1915.02L814.104 1870.33L855.061 1915.02L896.018 1870.33L936.96 1915.02L977.917 1870.33L1018.87 1915.02L1059.83 1870.33L1100.79 1915.02L1141.74 1870.33L1182.69 1915.02L1223.64 1870.33L1264.6 1915.02L1305.57 1870.33L1346.53 1915.02L1387.49 1870.33L1428.44 1915.02L1469.4 1870.33L1510.36 1915.02L1551.33 1870.33L1592.29 1915.02L1633.24 1870.33L1674.2 1915.02L1715.16 1870.33L1756.13 1915.02L1797.09 1870.33L1838.06 1915.02L1879.03 1870.33L1920 1915.02M-5 133.668L35.9424 178.156L76.8993 133.668L117.856 178.156L158.813 133.668L199.756 178.156L240.713 133.668L281.67 178.156L322.627 133.668L363.584 178.156L404.541 133.668L445.483 178.156L486.44 133.668L527.397 178.156L568.368 133.668L609.325 178.156L650.282 133.668L691.239 178.156L732.196 133.668L773.153 178.156M773.153 178.156L814.125 133.668L855.082 178.156L896.039 133.668L936.996 178.156L977.953 133.668L1018.92 178.156L1059.88 133.668L1100.85 178.156L1141.82 133.668L1182.8 178.156M773.153 178.156L732.204 133.668M773.153 178.156L814.104 133.668L855.061 178.156L896.018 133.668L936.96 178.156L977.917 133.668L1018.87 178.156L1059.83 133.668L1100.79 178.156L1141.74 133.668L1182.69 178.156L1223.64 133.668L1264.6 178.156L1305.57 133.668L1346.53 178.156L1387.49 133.668L1428.44 178.156L1469.4 133.668L1510.36 178.156L1551.33 133.668L1592.29 178.156L1633.24 133.668L1674.2 178.156L1715.16 133.668L1756.13 178.156L1797.09 133.668L1838.06 178.156L1879.03 133.668L1920 178.156M-5 489.778L35.9424 534.467L76.8993 489.778L117.856 534.467L158.813 489.778L199.756 534.467L240.713 489.778L281.67 534.467L322.627 489.778L363.584 534.467L404.541 489.778L445.483 534.467L486.44 489.778L527.397 534.467L568.368 489.778L609.325 534.467L650.282 489.778L691.239 534.467L732.196 489.778L773.153 534.467M773.153 534.467L814.125 489.778L855.082 534.467L896.039 489.778L936.996 534.467L977.953 489.778L1018.92 534.467L1059.88 489.778L1100.85 534.467L1141.82 489.778L1182.8 534.467M773.153 534.467L732.204 489.778M773.153 534.467L814.104 489.778L855.061 534.467L896.018 489.778L936.96 534.467L977.917 489.778L1018.87 534.467L1059.83 489.778L1100.79 534.467L1141.74 489.778L1182.69 534.467L1223.64 489.778L1264.6 534.467L1305.57 489.778L1346.53 534.467L1387.49 489.778L1428.44 534.467L1469.4 489.778L1510.36 534.467L1551.33 489.778L1592.29 534.467L1633.24 489.778L1674.2 534.467L1715.16 489.778L1756.13 534.467L1797.09 489.778L1838.06 534.467L1879.03 489.778L1920 534.467M-5 1246.89L35.9424 1291.38L76.8993 1246.89L117.856 1291.38L158.813 1246.89L199.756 1291.38L240.713 1246.89L281.67 1291.38L322.627 1246.89L363.584 1291.38L404.541 1246.89L445.483 1291.38L486.44 1246.89L527.397 1291.38L568.368 1246.89L609.325 1291.38L650.282 1246.89L691.239 1291.38L732.196 1246.89L773.153 1291.38M773.153 1291.38L814.125 1246.89L855.082 1291.38L896.039 1246.89L936.996 1291.38L977.953 1246.89L1018.92 1291.38L1059.88 1246.89L1100.85 1291.38L1141.82 1246.89L1182.8 1291.38M773.153 1291.38L732.204 1246.89M773.153 1291.38L814.104 1246.89L855.061 1291.38L896.018 1246.89L936.96 1291.38L977.917 1246.89L1018.87 1291.38L1059.83 1246.89L1100.79 1291.38L1141.74 1246.89L1182.69 1291.38L1223.64 1246.89L1264.6 1291.38L1305.57 1246.89L1346.53 1291.38L1387.49 1246.89L1428.44 1291.38L1469.4 1246.89L1510.36 1291.38L1551.33 1246.89L1592.29 1291.38L1633.24 1246.89L1674.2 1291.38L1715.16 1246.89L1756.13 1291.38L1797.09 1246.89L1838.06 1291.38L1879.03 1246.89L1920 1291.38M-5 846.09L35.9424 890.579L76.8993 846.09L117.856 890.579L158.813 846.09L199.756 890.579L240.713 846.09L281.67 890.579L322.627 846.09L363.584 890.579L404.541 846.09L445.483 890.579L486.44 846.09L527.397 890.579L568.368 846.09L609.325 890.579L650.282 846.09L691.239 890.579L732.196 846.09L773.153 890.579M773.153 890.579L814.125 846.09L855.082 890.579L896.039 846.09L936.996 890.579L977.953 846.09L1018.92 890.579L1059.88 846.09L1100.85 890.579L1141.82 846.09L1182.8 890.579M773.153 890.579L732.204 846.09M773.153 890.579L814.104 846.09L855.061 890.579L896.018 846.09L936.96 890.579L977.917 846.09L1018.87 890.579L1059.83 846.09L1100.79 890.579L1141.74 846.09L1182.69 890.579L1223.64 846.09L1264.6 890.579L1305.57 846.09L1346.53 890.579L1387.49 846.09L1428.44 890.579L1469.4 846.09L1510.36 890.579L1551.33 846.09L1592.29 890.579L1633.24 846.09L1674.2 890.579L1715.16 846.09L1756.13 890.579L1797.09 846.09L1838.06 890.579L1879.03 846.09L1920 890.579M-5 1603.2L35.9424 1647.69L76.8993 1603.2L117.856 1647.69L158.813 1603.2L199.756 1647.69L240.713 1603.2L281.67 1647.69L322.627 1603.2L363.584 1647.69L404.541 1603.2L445.483 1647.69L486.44 1603.2L527.397 1647.69L568.368 1603.2L609.325 1647.69L650.282 1603.2L691.239 1647.69L732.196 1603.2L773.153 1647.69M773.153 1647.69L814.125 1603.2L855.082 1647.69L896.039 1603.2L936.996 1647.69L977.953 1603.2L1018.92 1647.69L1059.88 1603.2L1100.85 1647.69L1141.82 1603.2L1182.8 1647.69M773.153 1647.69L732.204 1603.2M773.153 1647.69L814.104 1603.2L855.061 1647.69L896.018 1603.2L936.96 1647.69L977.917 1603.2L1018.87 1647.69L1059.83 1603.2L1100.79 1647.69L1141.74 1603.2L1182.69 1647.69L1223.64 1603.2L1264.6 1647.69L1305.57 1603.2L1346.53 1647.69L1387.49 1603.2L1428.44 1647.69L1469.4 1603.2L1510.36 1647.69L1551.33 1603.2L1592.29 1647.69L1633.24 1603.2L1674.2 1647.69L1715.16 1603.2L1756.13 1647.69L1797.09 1603.2L1838.06 1647.69L1879.03 1603.2L1920 1647.69M-5 311.822L35.9424 356.311L76.8993 311.822L117.856 356.311L158.813 311.822L199.756 356.311L240.713 311.822L281.67 356.311L322.627 311.822L363.584 356.311L404.541 311.822L445.483 356.311L486.44 311.822L527.397 356.311L568.368 311.822L609.325 356.311L650.282 311.822L691.239 356.311L732.196 311.822L773.153 356.311M773.153 356.311L814.125 311.822L855.082 356.311L896.039 311.822L936.996 356.311L977.953 311.822L1018.92 356.311L1059.88 311.822L1100.85 356.311L1141.82 311.822L1182.8 356.311M773.153 356.311L732.204 311.822M773.153 356.311L814.104 311.822L855.061 356.311L896.018 311.822L936.96 356.311L977.917 311.822L1018.87 356.311L1059.83 311.822L1100.79 356.311L1141.74 311.822L1182.69 356.311L1223.64 311.822L1264.6 356.311L1305.57 311.822L1346.53 356.311L1387.49 311.822L1428.44 356.311L1469.4 311.822L1510.36 356.311L1551.33 311.822L1592.29 356.311L1633.24 311.822L1674.2 356.311L1715.16 311.822L1756.13 356.311L1797.09 311.822L1838.06 356.311L1879.03 311.822L1920 356.311M-5 1068.73L35.9424 1113.42L76.8993 1068.73L117.856 1113.42L158.813 1068.73L199.756 1113.42L240.713 1068.73L281.67 1113.42L322.627 1068.73L363.584 1113.42L404.541 1068.73L445.483 1113.42L486.44 1068.73L527.397 1113.42L568.368 1068.73L609.325 1113.42L650.282 1068.73L691.239 1113.42L732.196 1068.73L773.153 1113.42M773.153 1113.42L814.125 1068.73L855.082 1113.42L896.039 1068.73L936.996 1113.42L977.953 1068.73L1018.92 1113.42L1059.88 1068.73L1100.85 1113.42L1141.82 1068.73L1182.8 1113.42M773.153 1113.42L732.204 1068.73M773.153 1113.42L814.104 1068.73L855.061 1113.42L896.018 1068.73L936.96 1113.42L977.917 1068.73L1018.87 1113.42L1059.83 1068.73L1100.79 1113.42L1141.74 1068.73L1182.69 1113.42L1223.64 1068.73L1264.6 1113.42L1305.57 1068.73L1346.53 1113.42L1387.49 1068.73L1428.44 1113.42L1469.4 1068.73L1510.36 1113.42L1551.33 1068.73L1592.29 1113.42L1633.24 1068.73L1674.2 1113.42L1715.16 1068.73L1756.13 1113.42L1797.09 1068.73L1838.06 1113.42L1879.03 1068.73L1920 1113.42M-5 667.935L35.9424 712.624L76.8993 667.935L117.856 712.624L158.813 667.935L199.756 712.624L240.713 667.935L281.67 712.624L322.627 667.935L363.584 712.624L404.541 667.935L445.483 712.624L486.44 667.935L527.397 712.624L568.368 667.935L609.325 712.624L650.282 667.935L691.239 712.624L732.196 667.935L773.153 712.624M773.153 712.624L814.125 667.935L855.082 712.624L896.039 667.935L936.996 712.624L977.953 667.935L1018.92 712.624L1059.88 667.935L1100.85 712.624L1141.82 667.935L1182.8 712.624M773.153 712.624L732.204 667.935M773.153 712.624L814.104 667.935L855.061 712.624L896.018 667.935L936.96 712.624L977.917 667.935L1018.87 712.624L1059.83 667.935L1100.79 712.624L1141.74 667.935L1182.69 712.624L1223.64 667.935L1264.6 712.624L1305.57 667.935L1346.53 712.624L1387.49 667.935L1428.44 712.624L1469.4 667.935L1510.36 712.624L1551.33 667.935L1592.29 712.624L1633.24 667.935L1674.2 712.624L1715.16 667.935L1756.13 712.624L1797.09 667.935L1838.06 712.624L1879.03 667.935L1920 712.624M-5 1425.04L35.9424 1469.53L76.8993 1425.04L117.856 1469.53L158.813 1425.04L199.756 1469.53L240.713 1425.04L281.67 1469.53L322.627 1425.04L363.584 1469.53L404.541 1425.04L445.483 1469.53L486.44 1425.04L527.397 1469.53L568.368 1425.04L609.325 1469.53L650.282 1425.04L691.239 1469.53L732.196 1425.04L773.153 1469.53M773.153 1469.53L814.125 1425.04L855.082 1469.53L896.039 1425.04L936.996 1469.53L977.953 1425.04L1018.92 1469.53L1059.88 1425.04L1100.85 1469.53L1141.82 1425.04L1182.8 1469.53M773.153 1469.53L732.204 1425.04M773.153 1469.53L814.104 1425.04L855.061 1469.53L896.018 1425.04L936.96 1469.53L977.917 1425.04L1018.87 1469.53L1059.83 1425.04L1100.79 1469.53L1141.74 1425.04L1182.69 1469.53L1223.64 1425.04L1264.6 1469.53L1305.57 1425.04L1346.53 1469.53L1387.49 1425.04L1428.44 1469.53L1469.4 1425.04L1510.36 1469.53L1551.33 1425.04L1592.29 1469.53L1633.24 1425.04L1674.2 1469.53L1715.16 1425.04L1756.13 1469.53L1797.09 1425.04L1838.06 1469.53L1879.03 1425.04L1920 1469.53M-5 1024.24L35.9424 1068.73L76.8993 1024.24L117.856 1068.73L158.813 1024.24L199.756 1068.73L240.713 1024.24L281.67 1068.73L322.627 1024.24L363.584 1068.73L404.541 1024.24L445.483 1068.73L486.44 1024.24L527.397 1068.73L568.368 1024.24L609.325 1068.73L650.282 1024.24L691.239 1068.73L732.196 1024.24L773.153 1068.73M773.153 1068.73L814.125 1024.24L855.082 1068.73L896.039 1024.24L936.996 1068.73L977.953 1024.24L1018.92 1068.73L1059.88 1024.24L1100.85 1068.73L1141.82 1024.24L1182.8 1068.73M773.153 1068.73L732.204 1024.24M773.153 1068.73L814.104 1024.24L855.061 1068.73L896.018 1024.24L936.96 1068.73L977.917 1024.24L1018.87 1068.73L1059.83 1024.24L1100.79 1068.73L1141.74 1024.24L1182.69 1068.73L1223.64 1024.24L1264.6 1068.73L1305.57 1024.24L1346.53 1068.73L1387.49 1024.24L1428.44 1068.73L1469.4 1024.24L1510.36 1068.73L1551.33 1024.24L1592.29 1068.73L1633.24 1024.24L1674.2 1068.73L1715.16 1024.24L1756.13 1068.73L1797.09 1024.24L1838.06 1068.73L1879.03 1024.24L1920 1068.73M-5 1781.36L35.9424 1825.84L76.8993 1781.36L117.856 1825.84L158.813 1781.36L199.756 1825.84L240.713 1781.36L281.67 1825.84L322.627 1781.36L363.584 1825.84L404.541 1781.36L445.483 1825.84L486.44 1781.36L527.397 1825.84L568.368 1781.36L609.325 1825.84L650.282 1781.36L691.239 1825.84L732.196 1781.36L773.153 1825.84M773.153 1825.84L814.125 1781.36L855.082 1825.84L896.039 1781.36L936.996 1825.84L977.953 1781.36L1018.92 1825.84L1059.88 1781.36L1100.85 1825.84L1141.82 1781.36L1182.8 1825.84M773.153 1825.84L732.204 1781.36M773.153 1825.84L814.104 1781.36L855.061 1825.84L896.018 1781.36L936.96 1825.84L977.917 1781.36L1018.87 1825.84L1059.83 1781.36L1100.79 1825.84L1141.74 1781.36L1182.69 1825.84L1223.64 1781.36L1264.6 1825.84L1305.57 1781.36L1346.53 1825.84L1387.49 1781.36L1428.44 1825.84L1469.4 1781.36L1510.36 1825.84L1551.33 1781.36L1592.29 1825.84L1633.24 1781.36L1674.2 1825.84L1715.16 1781.36L1756.13 1825.84L1797.09 1781.36L1838.06 1825.84L1879.03 1781.36L1920 1825.84M-5 1959.51L35.9424 2004L76.8993 1959.51L117.856 2004L158.813 1959.51L199.756 2004L240.713 1959.51L281.67 2004L322.627 1959.51L363.584 2004L404.541 1959.51L445.483 2004L486.44 1959.51L527.397 2004L568.368 1959.51L609.325 2004L650.282 1959.51L691.239 2004L732.196 1959.51L773.153 2004M773.153 2004L814.125 1959.51L855.082 2004L896.039 1959.51L936.996 2004L977.953 1959.51L1018.92 2004L1059.88 1959.51L1100.85 2004L1141.82 1959.51L1182.8 2004M773.153 2004L732.204 1959.51M773.153 2004L814.104 1959.51L855.061 2004L896.018 1959.51L936.96 2004L977.917 1959.51L1018.87 2004L1059.83 1959.51L1100.79 2004L1141.74 1959.51L1182.69 2004L1223.64 1959.51L1264.6 2004L1305.57 1959.51L1346.53 2004L1387.49 1959.51L1428.44 2004L1469.4 1959.51L1510.36 2004L1551.33 1959.51L1592.29 2004L1633.24 1959.51L1674.2 2004L1715.16 1959.51L1756.13 2004L1797.09 1959.51L1838.06 2004L1879.03 1959.51L1920 2004" stroke="white" stroke-width="0.597907" stroke-miterlimit="10" stroke-linecap="round"/>
</g>
<defs>
<clipPath id="clip0_2450_2">
<rect width="1920" height="2004" fill="white"/>
</clipPath>
</defs>
</svg>
